<svg xmlns="http://www.w3.org/2000/svg" viewBox="0 0 500 500"><g id="freepik--Floor--inject-57"><path id="freepik--floor--inject-57" d="M93.39,459.61c-86.5-43.59-86.5-114.24,0-157.83s226.73-43.58,313.22,0,86.5,114.24,0,157.83S179.88,503.19,93.39,459.61Z" style="fill:#fafafa"></path></g><g id="freepik--Shadows--inject-57"><path id="freepik--Shadow--inject-57" d="M296.82,442.33c-31.93-18.43-31.93-48.31,0-66.74s83.68-18.43,115.6,0,31.92,48.31,0,66.74S328.74,460.76,296.82,442.33Z" style="fill:#f0f0f0"></path><path id="freepik--shadow--inject-57" d="M100.2,443.21c-26.33-15.2-26.33-39.85,0-55s69-15.21,95.37,0,26.33,39.85,0,55S126.54,458.42,100.2,443.21Z" style="fill:#f0f0f0"></path></g><g id="freepik--Map--inject-57"><g id="freepik--Australia--inject-57"><path d="M385.66,323.8a5.58,5.58,0,0,1-2.82.16,26.22,26.22,0,0,0-7.39-.42,12.93,12.93,0,0,1-6.43-1.42,29.31,29.31,0,0,0-4.47-2.35,6.49,6.49,0,0,1-3.59-2.34,3.25,3.25,0,0,0-2.63-1.23c-1.52-.05-2.61.9-2,2.36a2.15,2.15,0,0,1-.28,1.95,4,4,0,0,0-.18,4,54.73,54.73,0,0,1,4.45,12.14,19.86,19.86,0,0,0,2.57,5.74,24.3,24.3,0,0,1,3.42,6.71,4,4,0,0,0,2.14,2.86,9.24,9.24,0,0,0,4.15.94,4,4,0,0,0,3.67-1.45c2.47-2.57,5.33-4.69,7.9-7.14a10,10,0,0,0,2.29-3.76c.94-2.39.5-5.15,2.07-7.33a1,1,0,0,0,.17-.54c-.18-1.48.47-2.8.77-4.19a6.35,6.35,0,0,0,.35-2.37C389.44,324.08,387.21,323.38,385.66,323.8Zm55.39-124.2a30.74,30.74,0,0,1-2-9.4c0-1.83.07-3.65.12-5.47a39.4,39.4,0,0,0-1.24-9.88c-.71-3-.84-6.22-2.39-9.07s-3.12-5.58-5.71-7.51a23.25,23.25,0,0,1-6.89-8.6,10.9,10.9,0,0,0-2.83-4.14,10.41,10.41,0,0,1-3.33-4.6,10.22,10.22,0,0,0-1.61-2.66c-1.55-1.93-3.72-2.44-6-2.46-2.05,0-2.78-1.3-3.15-2.84a42.49,42.49,0,0,0-2.7-6.72c-1.06-2.48-2.5-5-2.1-7.77a8.69,8.69,0,0,0-1.91-7.07,6.58,6.58,0,0,0-3.92-2.59,7,7,0,0,1-3.07-1.49,13.52,13.52,0,0,0-5.52-3.13,20.52,20.52,0,0,1-6.22-2.37c-.75-.45-1.55-.82-2.34-1.2-2.48-1.2-4.84-2.6-5.94-5.33a9.92,9.92,0,0,1-.59-5.85,10.78,10.78,0,0,0-.91-7.18,15.16,15.16,0,0,0-5.31-6.38,8,8,0,0,1-.69-.62,3.13,3.13,0,0,1-1.15-2.53c0-1.31.18-2.6.29-3.9a29,29,0,0,0-1.15-9.11,9.41,9.41,0,0,0-3.32-5.61,12.27,12.27,0,0,1-2.1-2.1c-2.29-2.88-5.73-2.92-8.87-3.69,0,0-.08,0-.11,0-2.35.48-2.88-.28-3.65-2.12a34.68,34.68,0,0,0-3.48-6.74,11.55,11.55,0,0,1-1.83-5.86c-.34-4.13-1.48-7.9-4.38-11A10.65,10.65,0,0,1,332.31,18a4,4,0,0,0-3.87-2.74c-1.3.1-1.92,1-2.43,2.93-.66,2.57-1.17,5.13-3.18,7.24-2.57,2.71-3.44,6.36-4.25,9.93a3.18,3.18,0,0,0,.78,2.79c2.47,3,2.57,6.33,1.22,9.76-1,2.58-1.45,5-.3,7.72a6.8,6.8,0,0,1-1.07,7.24c-1.2,1.4-2.75,2.51-3.78,4.05-1.7,2.56-1.83,6.09-4.05,8.22-1.71,1.64-4.4,2.15-5.73,4.11-1.12,1.65-1.22,4.2-3.07,4.93a3.67,3.67,0,0,1-3.18-.59,22.23,22.23,0,0,0-2.83-1.81,16.43,16.43,0,0,0-4-.69c-5.26-.77-8-5-12.45-7.06-3-1.4-6.17-2.48-9.06-4.22a55.39,55.39,0,0,0-6.09-2.69,11.11,11.11,0,0,1-6.38-6.53c-.88-2.48-1.88-4.81-.27-7.54,1.41-2.38,2.14-5.17,4.15-7.22a27,27,0,0,1,3.79-3,4.64,4.64,0,0,0,2.13-4.64c-.21-1.92-1.26-3.51-1.79-5.29a1.69,1.69,0,0,0-1.17-1,4,4,0,0,0-3.11.32,5.87,5.87,0,0,1-3.39.3c-.84-.15-.86-1-1.37-1.45a4,4,0,0,0-2.88-1.23c-1.14.09-2.27.3-3.41.29a12.08,12.08,0,0,0-5.88,1.21,11.25,11.25,0,0,1-7.12,1.34c-1.29-.2-2.56-.48-3.84-.72a47.93,47.93,0,0,1-6.64-1.35c-3.13-1.1-6.2-2.38-9.32-3.49-2.94-1-4.85.44-4.86,3.57a5.89,5.89,0,0,1-1.73,4.75,11.7,11.7,0,0,1-2.76,2.17,20.9,20.9,0,0,1-5.25,1.28c-2.48.35-4.55,1.34-5.75,3.71a8,8,0,0,1-1.51,2.31,8.19,8.19,0,0,0-2.08,2.71,3.2,3.2,0,0,1-1,1.37,15.72,15.72,0,0,0-4.28,5.49c-1,1.89-1.81,3.89-2.89,5.77a6,6,0,0,0-.61,4.25,8.11,8.11,0,0,1,0,3c-.17,1.51-1,2.57-2,2.62a10.25,10.25,0,0,1-2.53-.11c-1.38-.29-2.49-1.25-3.9-1.41a6.77,6.77,0,0,1-3.08-1.18,12.16,12.16,0,0,0-4.73-2.21,29.44,29.44,0,0,1-6.39-1.88c-1.36-.57-2.8-1.19-4.45-.67-2.42.77-4.31,2.41-6.47,3.6-.06,0-.09.13-.14.18-2,2-3.57,4.42-5.79,6.22a4.41,4.41,0,0,0-.75.86,30.11,30.11,0,0,1-4.33,5.31,25.87,25.87,0,0,0-5.34,6.25,6.11,6.11,0,0,0-.63,5.87c.68,1.64.13,2.58-1.64,2.79-1.52.18-3.07,0-4.24.32-2.35,0-3.5.88-3.93,2.87a8.24,8.24,0,0,0-.09,3.09c0,.31.16.65-.16.84a.76.76,0,0,1-1-.21c-.41-.4-.82-.8-1.2-1.23a2.19,2.19,0,0,0-3.26-.29c-1.81,1.56-3.57,3.15-5.33,4.76a5.11,5.11,0,0,0-1.88,3.71,23.87,23.87,0,0,0,.34,4.91,16.85,16.85,0,0,1,.6,4.76,10.5,10.5,0,0,1-1.21,3.42c-1,2.08-2,4.15-2.83,6.28a11.53,11.53,0,0,1-5.8,6.48c-1.91.89-3.8,1.81-5.66,2.78-2.56,1.33-5,2.79-7.64,4.07A59.74,59.74,0,0,0,80,146.2c-3.21,2.48-6.9,3.91-10.68,5.24a18.75,18.75,0,0,0-7.07,4c-3.79,3.69-6.32,8.28-9.1,12.68-1.45,2.29-2.59,4.82-4.42,6.8-1.3,1.41-2.69,3.17-5.21,1.86a2.79,2.79,0,0,0-3.2.7,3.08,3.08,0,0,0-.66,3.11,13.74,13.74,0,0,0,1.84,4.16,11.68,11.68,0,0,1,1.82,5.65,16.36,16.36,0,0,0,1.25,6.5,25.8,25.8,0,0,1,1.76,6.88,3.79,3.79,0,0,0,1.45,2.57,10.07,10.07,0,0,0,1.67,1c1.87,1,3.9,1.8,5.35,3.49a2.14,2.14,0,0,1,0,3.21,6.11,6.11,0,0,0-1.5,2.81,19,19,0,0,1-1.63,4.18,6.18,6.18,0,0,0,0,5.5,14,14,0,0,0,5.17,6.2c.62.37,1.25.73,1.86,1.14,1.72,1.15,3.24,2.58,5.07,3.58,2.14,1.18,3.68,3.1,5.4,4.75A14.71,14.71,0,0,1,71,245a46.49,46.49,0,0,0,4.85,6.43,19.71,19.71,0,0,1,2.46,3.27c1.59,3,3.87,5.35,5.89,7.94a20.75,20.75,0,0,1,3.29,5.47,47.55,47.55,0,0,0,2.08,5.36,3.68,3.68,0,0,1-.44,4.55,4.52,4.52,0,0,0-1.2,2.69,3,3,0,0,1-1.34,2.19,14,14,0,0,0-1.28,1.15,3.4,3.4,0,0,0,.23,4.92c.75.7,1.83,1.29,2.14,2.15.85,2.4,2.7,3,4.86,3.42,1.92.38,3.88.54,5.81.93a29,29,0,0,0,8.05,1,45.16,45.16,0,0,1,5.6-.3,10.52,10.52,0,0,0,5.81-1.49c1.26-.73,2.09-1.89,3.29-2.63a7.27,7.27,0,0,0,1.74-1.51,71.19,71.19,0,0,1,7-7.59c2.22-2,4.52-3.6,7.68-3.63a26.14,26.14,0,0,0,6-.76c3.52-.88,6.92-2.25,10.49-2.92a66.19,66.19,0,0,0,6.55-2A8.34,8.34,0,0,0,166.6,268a18.14,18.14,0,0,1,5.57-8.43,29.51,29.51,0,0,1,4.52-2.73c2.74-1.57,5.48-3.12,8.73-3.36a30.78,30.78,0,0,0,4.86-.89c4.45-1.09,8.51-3.27,12.85-4.7,2.76-.9,5.37-2.26,8.22-2.89a66.87,66.87,0,0,0,8-2.76,19.85,19.85,0,0,1,8.07-1.53c3.37.22,6.74.46,10.07-.43a8.87,8.87,0,0,1,2.26-.31c2.49,0,4.86.72,7.3,1a1.6,1.6,0,0,1,1.09.57,65.19,65.19,0,0,0,6.2,5.42c1.38,1.21,2.95,2.29,3.88,3.9a49.13,49.13,0,0,0,6.76,8.7c.76.83,1.89,1.39,2.13,2.65a5.25,5.25,0,0,0,4.21,4.47c1.77.46,2.74.4,4.35-1.49.75-.88,1.13-2.09,2.32-2.62a10.69,10.69,0,0,0,3.73-2.82,11.23,11.23,0,0,1,2.46-2c.49-.33,1.12-.87,1.77-.27a2.2,2.2,0,0,1,.92,2.39c-.55,2.27-1.32,4.6,0,6.91a1.24,1.24,0,0,1,.09.33,2.36,2.36,0,0,0,3.09,1.9,10.2,10.2,0,0,0,3.12-1.7,2,2,0,0,1,2.27-.12,4.26,4.26,0,0,1,1.95,2.94c.19.68.42,1.36,1.09,1.49a11.37,11.37,0,0,1,4.95,2.13.52.52,0,0,0,.22.07c1,.08,1.44.82,1.62,1.67a17.88,17.88,0,0,0,2.14,5.49,21.85,21.85,0,0,1,1.79,4.32c.8,2.44,1.93,4.75,4.4,6.06a26.25,26.25,0,0,1,4.31,3.19,9.83,9.83,0,0,0,2.54,1.55c5.68,2.33,11.58,4.13,16.94,7.23a6.38,6.38,0,0,0,6.26.31c2.59-1.23,4.93-2.88,7.48-4.15,1.72-.85,3.56-1.46,5.22-.22,1.49,1.12,2.95,2.3,4.42,3.46a12.59,12.59,0,0,0,5.47,2.8,2.75,2.75,0,0,0,1.9-.21,37.06,37.06,0,0,0,4.32-2.54c3.37-2.61,6.94-4.93,10.39-7.43,1.64-1.18,3.23-2.44,5.43-2.57a20.23,20.23,0,0,0,6.45-1.6,43.82,43.82,0,0,0,4.61-2.1c2.39-1.31,4.31-3.24,3.51-6.63a2.55,2.55,0,0,1,.25-2c1.07-1.69,2.1-3.4,3.17-5.09a43.08,43.08,0,0,1,5-6.44c2.46-2.63,3.22-6.2,5.12-9.17a36.76,36.76,0,0,0,2.77-6.08,51.17,51.17,0,0,0,3.35-9.44,24.64,24.64,0,0,1,1.84-5.92c1.19-2.54,2.51-5,3.84-7.49a27.88,27.88,0,0,1,4.16-6,23,23,0,0,0,3.71-5.4c1.18-2.26,2.07-4.67,3.13-7a14.87,14.87,0,0,0,1.69-5.19c.06-1,.26-2,.41-3A9.59,9.59,0,0,0,441.05,199.6Z" style="fill:#F1592A"></path><path d="M385.66,323.8a5.58,5.58,0,0,1-2.82.16,26.22,26.22,0,0,0-7.39-.42,12.93,12.93,0,0,1-6.43-1.42,29.31,29.31,0,0,0-4.47-2.35,6.49,6.49,0,0,1-3.59-2.34,3.25,3.25,0,0,0-2.63-1.23c-1.52-.05-2.61.9-2,2.36a2.15,2.15,0,0,1-.28,1.95,4,4,0,0,0-.18,4,54.73,54.73,0,0,1,4.45,12.14,19.86,19.86,0,0,0,2.57,5.74,24.3,24.3,0,0,1,3.42,6.71,4,4,0,0,0,2.14,2.86,9.24,9.24,0,0,0,4.15.94,4,4,0,0,0,3.67-1.45c2.47-2.57,5.33-4.69,7.9-7.14a10,10,0,0,0,2.29-3.76c.94-2.39.5-5.15,2.07-7.33a1,1,0,0,0,.17-.54c-.18-1.48.47-2.8.77-4.19a6.35,6.35,0,0,0,.35-2.37C389.44,324.08,387.21,323.38,385.66,323.8Zm55.39-124.2a30.74,30.74,0,0,1-2-9.4c0-1.83.07-3.65.12-5.47a39.4,39.4,0,0,0-1.24-9.88c-.71-3-.84-6.22-2.39-9.07s-3.12-5.58-5.71-7.51a23.25,23.25,0,0,1-6.89-8.6,10.9,10.9,0,0,0-2.83-4.14,10.41,10.41,0,0,1-3.33-4.6,10.22,10.22,0,0,0-1.61-2.66c-1.55-1.93-3.72-2.44-6-2.46-2.05,0-2.78-1.3-3.15-2.84a42.49,42.49,0,0,0-2.7-6.72c-1.06-2.48-2.5-5-2.1-7.77a8.69,8.69,0,0,0-1.91-7.07,6.58,6.58,0,0,0-3.92-2.59,7,7,0,0,1-3.07-1.49,13.52,13.52,0,0,0-5.52-3.13,20.52,20.52,0,0,1-6.22-2.37c-.75-.45-1.55-.82-2.34-1.2-2.48-1.2-4.84-2.6-5.94-5.33a9.92,9.92,0,0,1-.59-5.85,10.78,10.78,0,0,0-.91-7.18,15.16,15.16,0,0,0-5.31-6.38,8,8,0,0,1-.69-.62,3.13,3.13,0,0,1-1.15-2.53c0-1.31.18-2.6.29-3.9a29,29,0,0,0-1.15-9.11,9.41,9.41,0,0,0-3.32-5.61,12.27,12.27,0,0,1-2.1-2.1c-2.29-2.88-5.73-2.92-8.87-3.69,0,0-.08,0-.11,0-2.35.48-2.88-.28-3.65-2.12a34.68,34.68,0,0,0-3.48-6.74,11.55,11.55,0,0,1-1.83-5.86c-.34-4.13-1.48-7.9-4.38-11A10.65,10.65,0,0,1,332.31,18a4,4,0,0,0-3.87-2.74c-1.3.1-1.92,1-2.43,2.93-.66,2.57-1.17,5.13-3.18,7.24-2.57,2.71-3.44,6.36-4.25,9.93a3.18,3.18,0,0,0,.78,2.79c2.47,3,2.57,6.33,1.22,9.76-1,2.58-1.45,5-.3,7.72a6.8,6.8,0,0,1-1.07,7.24c-1.2,1.4-2.75,2.51-3.78,4.05-1.7,2.56-1.83,6.09-4.05,8.22-1.71,1.64-4.4,2.15-5.73,4.11-1.12,1.65-1.22,4.2-3.07,4.93a3.67,3.67,0,0,1-3.18-.59,22.23,22.23,0,0,0-2.83-1.81,16.43,16.43,0,0,0-4-.69c-5.26-.77-8-5-12.45-7.06-3-1.4-6.17-2.48-9.06-4.22a55.39,55.39,0,0,0-6.09-2.69,11.11,11.11,0,0,1-6.38-6.53c-.88-2.48-1.88-4.81-.27-7.54,1.41-2.38,2.14-5.17,4.15-7.22a27,27,0,0,1,3.79-3,4.64,4.64,0,0,0,2.13-4.64c-.21-1.92-1.26-3.51-1.79-5.29a1.69,1.69,0,0,0-1.17-1,4,4,0,0,0-3.11.32,5.87,5.87,0,0,1-3.39.3c-.84-.15-.86-1-1.37-1.45a4,4,0,0,0-2.88-1.23c-1.14.09-2.27.3-3.41.29a12.08,12.08,0,0,0-5.88,1.21,11.25,11.25,0,0,1-7.12,1.34c-1.29-.2-2.56-.48-3.84-.72a47.93,47.93,0,0,1-6.64-1.35c-3.13-1.1-6.2-2.38-9.32-3.49-2.94-1-4.85.44-4.86,3.57a5.89,5.89,0,0,1-1.73,4.75,11.7,11.7,0,0,1-2.76,2.17,20.9,20.9,0,0,1-5.25,1.28c-2.48.35-4.55,1.34-5.75,3.71a8,8,0,0,1-1.51,2.31,8.19,8.19,0,0,0-2.08,2.71,3.2,3.2,0,0,1-1,1.37,15.72,15.72,0,0,0-4.28,5.49c-1,1.89-1.81,3.89-2.89,5.77a6,6,0,0,0-.61,4.25,8.11,8.11,0,0,1,0,3c-.17,1.51-1,2.57-2,2.62a10.25,10.25,0,0,1-2.53-.11c-1.38-.29-2.49-1.25-3.9-1.41a6.77,6.77,0,0,1-3.08-1.18,12.16,12.16,0,0,0-4.73-2.21,29.44,29.44,0,0,1-6.39-1.88c-1.36-.57-2.8-1.19-4.45-.67-2.42.77-4.31,2.41-6.47,3.6-.06,0-.09.13-.14.18-2,2-3.57,4.42-5.79,6.22a4.41,4.41,0,0,0-.75.86,30.11,30.11,0,0,1-4.33,5.31,25.87,25.87,0,0,0-5.34,6.25,6.11,6.11,0,0,0-.63,5.87c.68,1.64.13,2.58-1.64,2.79-1.52.18-3.07,0-4.24.32-2.35,0-3.5.88-3.93,2.87a8.24,8.24,0,0,0-.09,3.09c0,.31.16.65-.16.84a.76.76,0,0,1-1-.21c-.41-.4-.82-.8-1.2-1.23a2.19,2.19,0,0,0-3.26-.29c-1.81,1.56-3.57,3.15-5.33,4.76a5.11,5.11,0,0,0-1.88,3.71,23.87,23.87,0,0,0,.34,4.91,16.85,16.85,0,0,1,.6,4.76,10.5,10.5,0,0,1-1.21,3.42c-1,2.08-2,4.15-2.83,6.28a11.53,11.53,0,0,1-5.8,6.48c-1.91.89-3.8,1.81-5.66,2.78-2.56,1.33-5,2.79-7.64,4.07A59.74,59.74,0,0,0,80,146.2c-3.21,2.48-6.9,3.91-10.68,5.24a18.75,18.75,0,0,0-7.07,4c-3.79,3.69-6.32,8.28-9.1,12.68-1.45,2.29-2.59,4.82-4.42,6.8-1.3,1.41-2.69,3.17-5.21,1.86a2.79,2.79,0,0,0-3.2.7,3.08,3.08,0,0,0-.66,3.11,13.74,13.74,0,0,0,1.84,4.16,11.68,11.68,0,0,1,1.82,5.65,16.36,16.36,0,0,0,1.25,6.5,25.8,25.8,0,0,1,1.76,6.88,3.79,3.79,0,0,0,1.45,2.57,10.07,10.07,0,0,0,1.67,1c1.87,1,3.9,1.8,5.35,3.49a2.14,2.14,0,0,1,0,3.21,6.11,6.11,0,0,0-1.5,2.81,19,19,0,0,1-1.63,4.18,6.18,6.18,0,0,0,0,5.5,14,14,0,0,0,5.17,6.2c.62.37,1.25.73,1.86,1.14,1.72,1.15,3.24,2.58,5.07,3.58,2.14,1.18,3.68,3.1,5.4,4.75A14.71,14.71,0,0,1,71,245a46.49,46.49,0,0,0,4.85,6.43,19.71,19.71,0,0,1,2.46,3.27c1.59,3,3.87,5.35,5.89,7.94a20.75,20.75,0,0,1,3.29,5.47,47.55,47.55,0,0,0,2.08,5.36,3.68,3.68,0,0,1-.44,4.55,4.52,4.52,0,0,0-1.2,2.69,3,3,0,0,1-1.34,2.19,14,14,0,0,0-1.28,1.15,3.4,3.4,0,0,0,.23,4.92c.75.7,1.83,1.29,2.14,2.15.85,2.4,2.7,3,4.86,3.42,1.92.38,3.88.54,5.81.93a29,29,0,0,0,8.05,1,45.16,45.16,0,0,1,5.6-.3,10.52,10.52,0,0,0,5.81-1.49c1.26-.73,2.09-1.89,3.29-2.63a7.27,7.27,0,0,0,1.74-1.51,71.19,71.19,0,0,1,7-7.59c2.22-2,4.52-3.6,7.68-3.63a26.14,26.14,0,0,0,6-.76c3.52-.88,6.92-2.25,10.49-2.92a66.19,66.19,0,0,0,6.55-2A8.34,8.34,0,0,0,166.6,268a18.14,18.14,0,0,1,5.57-8.43,29.51,29.51,0,0,1,4.52-2.73c2.74-1.57,5.48-3.12,8.73-3.36a30.78,30.78,0,0,0,4.86-.89c4.45-1.09,8.51-3.27,12.85-4.7,2.76-.9,5.37-2.26,8.22-2.89a66.87,66.87,0,0,0,8-2.76,19.85,19.85,0,0,1,8.07-1.53c3.37.22,6.74.46,10.07-.43a8.87,8.87,0,0,1,2.26-.31c2.49,0,4.86.72,7.3,1a1.6,1.6,0,0,1,1.09.57,65.19,65.19,0,0,0,6.2,5.42c1.38,1.21,2.95,2.29,3.88,3.9a49.13,49.13,0,0,0,6.76,8.7c.76.83,1.89,1.39,2.13,2.65a5.25,5.25,0,0,0,4.21,4.47c1.77.46,2.74.4,4.35-1.49.75-.88,1.13-2.09,2.32-2.62a10.69,10.69,0,0,0,3.73-2.82,11.23,11.23,0,0,1,2.46-2c.49-.33,1.12-.87,1.77-.27a2.2,2.2,0,0,1,.92,2.39c-.55,2.27-1.32,4.6,0,6.91a1.24,1.24,0,0,1,.09.33,2.36,2.36,0,0,0,3.09,1.9,10.2,10.2,0,0,0,3.12-1.7,2,2,0,0,1,2.27-.12,4.26,4.26,0,0,1,1.95,2.94c.19.68.42,1.36,1.09,1.49a11.37,11.37,0,0,1,4.95,2.13.52.52,0,0,0,.22.07c1,.08,1.44.82,1.62,1.67a17.88,17.88,0,0,0,2.14,5.49,21.85,21.85,0,0,1,1.79,4.32c.8,2.44,1.93,4.75,4.4,6.06a26.25,26.25,0,0,1,4.31,3.19,9.83,9.83,0,0,0,2.54,1.55c5.68,2.33,11.58,4.13,16.94,7.23a6.38,6.38,0,0,0,6.26.31c2.59-1.23,4.93-2.88,7.48-4.15,1.72-.85,3.56-1.46,5.22-.22,1.49,1.12,2.95,2.3,4.42,3.46a12.59,12.59,0,0,0,5.47,2.8,2.75,2.75,0,0,0,1.9-.21,37.06,37.06,0,0,0,4.32-2.54c3.37-2.61,6.94-4.93,10.39-7.43,1.64-1.18,3.23-2.44,5.43-2.57a20.23,20.23,0,0,0,6.45-1.6,43.82,43.82,0,0,0,4.61-2.1c2.39-1.31,4.31-3.24,3.51-6.63a2.55,2.55,0,0,1,.25-2c1.07-1.69,2.1-3.4,3.17-5.09a43.08,43.08,0,0,1,5-6.44c2.46-2.63,3.22-6.2,5.12-9.17a36.76,36.76,0,0,0,2.77-6.08,51.17,51.17,0,0,0,3.35-9.44,24.64,24.64,0,0,1,1.84-5.92c1.19-2.54,2.51-5,3.84-7.49a27.88,27.88,0,0,1,4.16-6,23,23,0,0,0,3.71-5.4c1.18-2.26,2.07-4.67,3.13-7a14.87,14.87,0,0,0,1.69-5.19c.06-1,.26-2,.41-3A9.59,9.59,0,0,0,441.05,199.6Z" style="fill:#fff;opacity:0.9"></path></g></g><g id="freepik--Plants--inject-57"><g id="freepik--plants--inject-57"><g id="freepik--Leaves--inject-57"><path d="M84,300.59s-4.36-8-.93-20.31c2.74-9.85,7.53-13.4,8.5-12.94s1.45,4.93-1.47,15.94C88.91,287.87,84,300.59,84,300.59Z" style="fill:#F1592A"></path><path d="M84.39,320.87c-.15-1,1-11.22,5.17-21.22,2.25-5.33,5-7.38,5.87-6.46.53.55.95,5-2.49,13.09S84.54,321.91,84.39,320.87Z" style="fill:#F1592A"></path><path d="M83.52,309.47c0-1.09-1.35-4.47-4.61-9.63-2.2-3.49-4.49-7.72-5.78-7.28s-1,5.73,1.54,9.78S83.48,310.56,83.52,309.47Z" style="fill:#F1592A"></path><path d="M85.07,328.84c-.1-1.24-4.31-7.1-6.28-9.78s-4.76-5.38-6.47-5.17-.83,4.67,2.83,8.92S85.17,330.08,85.07,328.84Z" style="fill:#F1592A"></path><path d="M87.4,337.3c-.58-.81.62-6.83,2.26-12.44s5-11.86,6.51-10.41,1.19,5.67-1.13,11.39C92.46,332.18,88,338.1,87.4,337.3Z" style="fill:#F1592A"></path><path d="M89.49,345.51c.11-.63-3.92-3.91-7.8-7.6s-5.5-5.22-6.92-4.45-1.14,4.39,3.54,8S89.37,346.14,89.49,345.51Z" style="fill:#F1592A"></path><path d="M89,273.07a111,111,0,0,0-5.09,23,130.67,130.67,0,0,0-.63,23.57,81,81,0,0,0,4.53,23.21c2.82,7.37,7.07,14.46,13.28,19.38a.09.09,0,0,0,.12-.13,51.78,51.78,0,0,1-11.79-19.83,96.41,96.41,0,0,1-4.78-22.74,130.31,130.31,0,0,1,.12-23.37,110,110,0,0,1,4.41-23,.08.08,0,0,0-.06-.1A.09.09,0,0,0,89,273.07Z" style="fill:#263238"></path></g><g id="freepik--leaves--inject-57"><path d="M42.15,325S39,319.12,30.2,316.24c-7.08-2.31-11.17-.84-11.28-.07s2.41,2.88,10.27,5.55C32.46,322.84,42.15,325,42.15,325Z" style="fill:#F1592A"></path><path d="M54.31,333.43c-.57-.51-7.19-4-15-5.43-4.14-.79-6.48,0-6.28.95.11.54,2.65,2.59,8.94,3.78S54.88,333.94,54.31,333.43Z" style="fill:#F1592A"></path><path d="M47.74,328.3c-.68-.41-2.17-2.63-4-6.69-1.23-2.74-2.87-5.85-2.08-6.44s3.88,1.7,5.31,4.88S48.42,328.71,47.74,328.3Z" style="fill:#F1592A"></path><path d="M58.87,337.06c-.72-.56-2.57-5.48-3.4-7.75s-1.34-5.07-.52-6,3.17,1.39,4.27,5.33S59.58,337.62,58.87,337.06Z" style="fill:#F1592A"></path><path d="M63.06,341.9c-.26-.69-4.39-2.39-8.46-3.66s-9.2-1.77-9-.25,3,3,7.37,3.91C57.91,342.9,63.31,342.58,63.06,341.9Z" style="fill:#F1592A"></path><path d="M67.2,346.48c-.43-.19-.79-4-1.46-7.81s-.95-5.44.09-6,3.13,1.08,3.45,5.39S67.63,346.66,67.2,346.48Z" style="fill:#F1592A"></path><path d="M23.44,316.92a80.9,80.9,0,0,1,16,6.19A95.26,95.26,0,0,1,54,332.24a59.67,59.67,0,0,1,12.25,12.13c3.33,4.69,5.92,10.13,6.39,15.89,0,0,0,.06,0,.07a.07.07,0,0,1-.07-.05,37.88,37.88,0,0,0-7.27-15.17A70.65,70.65,0,0,0,53.37,333a94.24,94.24,0,0,0-14.23-9.37A80.16,80.16,0,0,0,23.41,317a.08.08,0,0,1-.05-.08A.07.07,0,0,1,23.44,316.92Z" style="fill:#263238"></path></g><path d="M75.32,349.26a4,4,0,0,0-1.83-.43A63.73,63.73,0,0,0,51,352.31c2.48,3.66,4.74,7.12,5.18,11.67a2.32,2.32,0,0,0,.71,1.8A2.17,2.17,0,0,0,58,366a94.09,94.09,0,0,0,10.62-.15,27.42,27.42,0,0,1-9.72,3.39,1.82,1.82,0,0,0-1.36.6,1.8,1.8,0,0,0-.19,1,41.54,41.54,0,0,0,.79,7.21,36.67,36.67,0,0,0,1.54,6.63,9.53,9.53,0,0,0,1.7,2.93c2,2.18,5.16,1.7,7.8,1.29a25,25,0,0,0,8.47-2.9c-1.9,4-6.61,6.25-10.71,7.19a1.12,1.12,0,0,0-.53.24.9.9,0,0,0-.22.59,5,5,0,0,0,1.06,3,21.69,21.69,0,0,0,14.46,9,28.43,28.43,0,0,0,12.85-1,14,14,0,0,0,8.59-7.25c.25-.53.46-1.76.87-2.16s1.2-.32,1.7-.46a16.07,16.07,0,0,0,9.81-7.74c3.72-6.88,1.8-16.51-3.58-22-1-1.06-2.92-3.34-4.14-1.48a32.4,32.4,0,0,0-1.32,3c-.34.68-1.45,1.85-1.54,2.56a17.95,17.95,0,0,0-13.12-19.59,35.93,35.93,0,0,0-10-.75c-.7,0-1.55.1-1.86.73a2.05,2.05,0,0,0-.14.82,16,16,0,0,1-1.36,5.69,12,12,0,0,0-1.37-4.93A4.78,4.78,0,0,0,75.32,349.26Z" style="fill:#F1592A"></path><g style="opacity:0.30000000000000004"><path d="M75.32,349.26a4,4,0,0,0-1.83-.43A63.73,63.73,0,0,0,51,352.31c2.48,3.66,4.74,7.12,5.18,11.67a2.32,2.32,0,0,0,.71,1.8A2.17,2.17,0,0,0,58,366a94.09,94.09,0,0,0,10.62-.15,27.42,27.42,0,0,1-9.72,3.39,1.82,1.82,0,0,0-1.36.6,1.8,1.8,0,0,0-.19,1,41.54,41.54,0,0,0,.79,7.21,36.67,36.67,0,0,0,1.54,6.63,9.53,9.53,0,0,0,1.7,2.93c2,2.18,5.16,1.7,7.8,1.29a25,25,0,0,0,8.47-2.9c-1.9,4-6.61,6.25-10.71,7.19a1.12,1.12,0,0,0-.53.24.9.9,0,0,0-.22.59,5,5,0,0,0,1.06,3,21.69,21.69,0,0,0,14.46,9,28.43,28.43,0,0,0,12.85-1,14,14,0,0,0,8.59-7.25c.25-.53.46-1.76.87-2.16s1.2-.32,1.7-.46a16.07,16.07,0,0,0,9.81-7.74c3.72-6.88,1.8-16.51-3.58-22-1-1.06-2.92-3.34-4.14-1.48a32.4,32.4,0,0,0-1.32,3c-.34.68-1.45,1.85-1.54,2.56a17.95,17.95,0,0,0-13.12-19.59,35.93,35.93,0,0,0-10-.75c-.7,0-1.55.1-1.86.73a2.05,2.05,0,0,0-.14.82,16,16,0,0,1-1.36,5.69,12,12,0,0,0-1.37-4.93A4.78,4.78,0,0,0,75.32,349.26Z" style="fill:#fff"></path></g><path d="M71,375.54a.5.5,0,0,0,.27-.07,24.59,24.59,0,0,1,21-.91.46.46,0,0,0,.6-.26.45.45,0,0,0-.26-.6,25.53,25.53,0,0,0-21.79,1,.47.47,0,0,0-.15.64A.47.47,0,0,0,71,375.54Z" style="fill:#fff"></path><path d="M102.9,394.8a.44.44,0,0,1-.49-.36c-3-19.23-24.83-34.88-38.48-38.95a.43.43,0,0,1-.29-.54.45.45,0,0,1,.54-.3c13.86,4.14,36,20.1,39.09,39.65a.44.44,0,0,1-.36.5Z" style="fill:#fff"></path></g><g id="freepik--Grass--inject-57"><path d="M412.41,382.35c-3.48,17.12.76,39.22.76,39.22l-3.66-2.36C407.08,395.14,412.41,382.35,412.41,382.35Z" style="fill:#F1592A"></path><path d="M412.41,382.35c-3.48,17.12.76,39.22.76,39.22l-3.66-2.36C407.08,395.14,412.41,382.35,412.41,382.35Z" style="opacity:0.15"></path><path d="M411.11,419.79c0,.06.07.44.08.5l-1.68-1.08c-2.43-24.07,2.9-36.86,2.9-36.86C409.46,390.64,409.32,410.43,411.11,419.79Z" style="opacity:0.15"></path><path d="M413.17,421.57s1.65-15.8,7.6-29.15,13.38-19.29,13.38-19.29-9,4.05-16.54,18.39a92.45,92.45,0,0,0-9.24,27Z" style="fill:#F1592A"></path><path d="M410.68,419.69l0,.25-2.28-1.47a92.45,92.45,0,0,1,9.24-27c7.49-14.34,16.54-18.39,16.54-18.39C425.31,378.73,413.49,397.06,410.68,419.69Z" style="opacity:0.1"></path><path d="M413.17,421.57s2.68-13,18.62-23.56c0,0-15.05,5.74-22.28,21.2Z" style="fill:#F1592A"></path><path d="M411.29,420c0,.05-.08.23-.1.27l-1.68-1.08c7.23-15.46,22.28-21.2,22.28-21.2C424.39,402.22,415.36,409.4,411.29,420Z" style="opacity:0.15"></path></g><g id="freepik--grass--inject-57"><path d="M290.23,348.83c2.8,19.77-3.53,44.71-3.53,44.71l4.33-2.45C295.44,363.78,290.23,348.83,290.23,348.83Z" style="fill:#F1592A"></path><path d="M290.23,348.83c2.8,19.77-3.53,44.71-3.53,44.71l4.33-2.45C295.44,363.78,290.23,348.83,290.23,348.83Z" style="opacity:0.15"></path><path d="M289.16,391.64c0,.08-.1.5-.12.58l2-1.13c4.41-27.31-.8-42.26-.8-42.26C293,358.48,291.85,381.09,289.16,391.64Z" style="opacity:0.15"></path><path d="M286.7,393.54s-.81-18.15-6.7-33.79-14-22.92-14-22.92,10,5.23,17.62,22.11a105.53,105.53,0,0,1,8.72,31.39Z" style="fill:#F1592A"></path><path d="M289.66,391.56l0,.29,2.7-1.52a105.53,105.53,0,0,0-8.72-31.39C276.09,342.06,266,336.83,266,336.83,275.74,343.82,288,365.55,289.66,391.56Z" style="opacity:0.1"></path><path d="M286.7,393.54s-2.19-15.05-19.66-28.16c0,0,16.78,7.57,24,25.71Z" style="fill:#F1592A"></path><path d="M289,391.89c0,.06.07.27.09.33l2-1.13c-7.21-18.14-24-25.71-24-25.71C275.2,370.69,285,379.5,289,391.89Z" style="opacity:0.15"></path></g></g><g id="freepik--Kangaroo--inject-57"><g id="freepik--kangaroo--inject-57"><g id="freepik--Arm--inject-57"><path d="M327,232.31c-4.58,3.51-9.28,10.3-11.67,21.33-2,9-3.31,23.4-3.31,23.4s-6.92,26.15-7.19,34.31S308.68,328,308.68,328l17.06-42.9Z" style="fill:#F1592A"></path><path d="M327,232.31c-4.58,3.51-9.28,10.3-11.67,21.33-2,9-3.31,23.4-3.31,23.4s-6.92,26.15-7.19,34.31S308.68,328,308.68,328l17.06-42.9Z" style="fill:#fff;opacity:0.1"></path></g><g id="freepik--Tail--inject-57"><path d="M363.32,360.93c13.47,6.6,38.92,8.14,60.91,0C450,351.38,457.9,335.49,454.78,317s-15.86-35.25-7.78-46.25c6.7-9.13,13.88-5.69,18.48-2.83,4.16,2.6,5.33.62,2.63-4.07-3.09-5.36-15.18-10.75-27.07-4-13.37,7.6-12.9,21.2-10.57,35.07,2.11,12.54,5.67,20.42-4.23,23.79-9.34,3.17-16.74-18.37-16.74-18.37Z" style="fill:#F1592A"></path><path d="M363.32,360.93c13.47,6.6,38.92,8.14,60.91,0C450,351.38,457.9,335.49,454.78,317s-15.86-35.25-7.78-46.25c6.7-9.13,13.88-5.69,18.48-2.83,4.16,2.6,5.33.62,2.63-4.07-3.09-5.36-15.18-10.75-27.07-4-13.37,7.6-12.9,21.2-10.57,35.07,2.11,12.54,5.67,20.42-4.23,23.79-9.34,3.17-16.74-18.37-16.74-18.37Z" style="fill:#fff;opacity:0.1"></path><path d="M441,259.85c-13.37,7.6-12.9,21.2-10.57,35.07,2,11.81,5.26,19.49-2.65,23.15h0c6.39-1.95,8.16-7.59,6-17.23s-4.14-25.07,2.51-33.87,18.67-11.09,26.21-7.93A22.56,22.56,0,0,0,441,259.85Z" style="fill:#fff;opacity:0.2"></path><path d="M454.78,317c-3.11-18.5-15.86-35.25-7.78-46.25,6.7-9.13,13.88-5.69,18.48-2.83,2.8,1.75,4.24,1.42,4.06-.42h0c-.78,1.53-1.89-.75-6-3.72s-13.81-4-21,6.61-.72,28,1.43,34.36,7.71,27-5,38c-9.88,8.56-25.46,8.86-23.47-.47,1.09-5.1-9.38-16-19.08-24.75l-33.1,43.43c13.47,6.6,38.92,8.14,60.91,0C450,351.38,457.9,335.49,454.78,317Z" style="opacity:0.1"></path></g><g id="freepik--Leg--inject-57"><path d="M327.38,281.82c-9.07,9.95-10.52,24.26-9.22,32.25s13.11,23,15.29,28.68c2.73,7.13,6.74,29.41,2.95,32.95s-22,5.53-33.18,8.93c-9.13,2.78-18.75,5.93-18.17,13.65.17,2.29,1.6,4.3,3.89,4.41h.13A6,6,0,0,0,291.3,409c2.17,1.59,6.4,2.95,10.13,1.2-.38,3.76,4.75,4.83,8.89,3.31,7.9-2.91,12.75-8.35,17.95-12.22s22.22-12.9,25.08-14.52c5.75-3.26.15-9.4-1-15.46-.87-4.47-3.5-23.4-3.61-27.71-.41-15.62,5.22-28.07,7-42.57C358.11,280.68,349,258.09,327.38,281.82Z" style="fill:#F1592A"></path><path d="M327.38,281.82c-9.07,9.95-10.52,24.26-9.22,32.25s13.11,23,15.29,28.68c2.73,7.13,6.74,29.41,2.95,32.95s-22,5.53-33.18,8.93c-9.13,2.78-18.75,5.93-18.17,13.65.17,2.29,1.6,4.3,3.89,4.41h.13A6,6,0,0,0,291.3,409c2.17,1.59,6.4,2.95,10.13,1.2-.38,3.76,4.75,4.83,8.89,3.31,7.9-2.91,12.75-8.35,17.95-12.22s22.22-12.9,25.08-14.52c5.75-3.26.15-9.4-1-15.46-.87-4.47-3.5-23.4-3.61-27.71-.41-15.62,5.22-28.07,7-42.57C358.11,280.68,349,258.09,327.38,281.82Z" style="fill:#fff;opacity:0.1"></path><path d="M307,400.1c5.32-5.18,14.61-10.39,21.78-13-11.3,1.55-22.27,9.11-28,15.48-3.62,4-5.27,8-9.44,6.34,2.17,1.59,6.4,2.95,10.13,1.2C301.13,406.4,303.05,403.92,307,400.1Z" style="opacity:0.1"></path><path d="M305.83,387.83c7.19-3.72,18.34-5.48,18.34-5.48-7.35-.13-18.26,3-25.23,7.35-5.54,3.44-9.76,8.75-10.86,8.92-2,.31-2.94-.64-2.92-2.59a9.79,9.79,0,0,0-.11,2.25c.17,2.29,1.6,4.3,3.89,4.41h.13C290.32,397.42,298.64,391.54,305.83,387.83Z" style="opacity:0.1"></path><path d="M321.6,309a29.23,29.23,0,0,0,3.83,11.48c2.09,3.74,3.72,7.36,6.62,10.63a4.47,4.47,0,0,0,2.3,1.62,3.07,3.07,0,0,0,3-1.59,7.17,7.17,0,0,0,.81-3.51,23,23,0,0,0-2.11-10.14c-1.4-3-3.54-5.59-5-8.58-2.43-4.89-2.73-10.57-2.25-16,.19-2.09-1.34-4-3.07-1.78C321.84,296.09,321,302.73,321.6,309Z" style="fill:#fff;opacity:0.1"></path></g><g id="freepik--Body--inject-57"><path d="M417.73,297.41c-3.51-16.54-13.21-40.38-25.52-52.8s-21-20.47-26.06-40.78a96.56,96.56,0,0,0-10.84-26.44c-3-4.76-4.69-5.11-8.69-6.88-8.6-3.81-19.32,30.41-19.4,32.76,7.13,29.77-12.54,53.31-12.33,91,.15,28.82,17.28,55.62,43.08,62.12s39.59,7,49.73-3.05S423.77,326,417.73,297.41Z" style="fill:#F1592A"></path><path d="M417.73,297.41c-3.51-16.54-13.21-40.38-25.52-52.8s-21-20.47-26.06-40.78a96.56,96.56,0,0,0-10.84-26.44c-3-4.76-4.69-5.11-8.69-6.88-8.6-3.81-19.32,30.41-19.4,32.76,13.5,35.34-12.54,53.31-12.33,91,.15,28.82,17.28,55.62,43.08,62.12s39.59,7,49.73-3.05S423.77,326,417.73,297.41Z" style="fill:#fff;opacity:0.30000000000000004"></path><path d="M372.69,322.53l23.84-17.48C386.38,303.06,375.22,316.12,372.69,322.53Z" style="fill:#F1592A;opacity:0.5"></path><path d="M376.49,253.64a39.62,39.62,0,0,1-6.74,31.13c-8.89,12.45-3.05-4.75-3.05-4.75Z" style="fill:#F1592A;opacity:0.5"></path><path d="M410.65,330a58.58,58.58,0,0,1-6.37,26.41,42.4,42.4,0,0,0,3.42-3.05,36,36,0,0,0,3-3.29C411.12,348.23,412.42,334.14,410.65,330Z" style="fill:#F1592A;opacity:0.5"></path><path d="M314.89,294.32c.15,28.82,9.46,59.2,43.78,66.8a65.41,65.41,0,0,0,28.31.09c19.25-18.32-2.32-62-15.18-76.32-11.35-12.61-16.17-28.79-17.05-44.88-1.14-20.88-8-31.89-13.7-38l-17.94,6.54c4.33,3.35,5.92,6.93,5.49,12.82C327,243.54,314.73,264.49,314.89,294.32Z" style="fill:#fafafa"></path><path d="M355.67,295c6.56-3.09,9.9-.35,15.07-11.34a59,59,0,0,1-4-5.2l-.06-.07c-.4-.6-.79-1.19-1.17-1.8l-9.1,6.82-24.83,13.24-16.53,4.23c1.09,19.24,6.76,38.33,21.67,50.16-7.22-7-19.3-31.25-9.84-35.78C332.43,312.61,349.11,298.08,355.67,295Z" style="fill:#F1592A;opacity:0.2"></path><path d="M386,307.52c-5.54,4-11.82,11.23-13.31,15-2.53,6.4-6.14,15.11-3.11,29.57,2,9.61-22.62,5-28.86,1.74l.79.52a55.54,55.54,0,0,0,17.16,6.76,65.41,65.41,0,0,0,28.31.09C399.68,349.12,394.61,326,386,307.52Z" style="fill:#F1592A;opacity:0.2"></path><path d="M326.37,211.8c3.83-.69,10.24-2.48,12.43-4.53a6.26,6.26,0,0,0,2.25-5.26l-17.94,6.54A16.44,16.44,0,0,1,326.37,211.8Z" style="fill:#F1592A;opacity:0.5"></path></g><path d="M380.54,315.21c-9.07,10-10.52,24.27-9.21,32.26s13.1,23,15.28,28.68c2.74,7.13,6.74,29.41,2.95,33s-21.35,5.2-33.18,8.92c-9.1,2.87-18.75,5.93-18.17,13.66.18,2.28,1.6,4.3,3.89,4.4h.13a6,6,0,0,0,2.24,6.26c2.16,1.58,6.39,2.95,10.12,1.2-.38,3.76,4.75,4.83,8.89,3.3,7.9-2.9,10.72-7.05,17.95-12.22,5.06-3.6,23.2-13.61,25.08-14.51,5.95-2.88.15-9.4-1-15.46-.87-4.47-3.5-23.4-3.61-27.72-.41-15.61,5.23-28.06,7-42.56C411.27,314.07,402.17,291.48,380.54,315.21Z" style="fill:#F1592A"></path><path d="M380.54,315.21c-9.07,10-10.52,24.27-9.21,32.26s13.1,23,15.28,28.68c2.74,7.13,6.74,29.41,2.95,33s-21.35,5.2-33.18,8.92c-9.1,2.87-18.75,5.93-18.17,13.66.18,2.28,1.6,4.3,3.89,4.4h.13a6,6,0,0,0,2.24,6.26c2.16,1.58,6.39,2.95,10.12,1.2-.38,3.76,4.75,4.83,8.89,3.3,7.9-2.9,10.72-7.05,17.95-12.22,5.06-3.6,23.2-13.61,25.08-14.51,5.95-2.88.15-9.4-1-15.46-.87-4.47-3.5-23.4-3.61-27.72-.41-15.61,5.23-28.06,7-42.56C411.27,314.07,402.17,291.48,380.54,315.21Z" style="fill:#fff;opacity:0.30000000000000004"></path><path d="M360.13,433.49c5.32-5.18,14.61-10.38,21.78-13-11.29,1.55-22.27,9.11-28,15.47-3.62,4-5.27,8-9.43,6.35,2.16,1.58,6.39,2.95,10.12,1.2C354.3,439.79,356.21,437.31,360.13,433.49Z" style="fill:#F1592A;opacity:0.5"></path><path d="M359,421.22c7.19-3.71,18.35-5.47,18.35-5.47-7.36-.14-18.27,3-25.23,7.35-5.55,3.44-9.77,8.74-10.87,8.91-2,.32-2.94-.63-2.91-2.59a9.34,9.34,0,0,0-.12,2.26c.18,2.28,1.6,4.3,3.89,4.4h.13C343.48,430.82,351.8,424.94,359,421.22Z" style="fill:#F1592A;opacity:0.5"></path><path d="M374.76,342.34a29.17,29.17,0,0,0,3.83,11.48c2.09,3.75,3.72,7.36,6.62,10.63a4.41,4.41,0,0,0,2.3,1.62,3.08,3.08,0,0,0,3-1.58,7.2,7.2,0,0,0,.8-3.52,23.06,23.06,0,0,0-2.11-10.14c-1.4-3-3.54-5.58-5-8.57-2.43-4.89-2.73-10.58-2.24-16,.18-2.08-1.35-4-3.08-1.78C375,329.49,374.13,336.13,374.76,342.34Z" style="fill:#fff;opacity:0.2"></path><g id="freepik--Head--inject-57"><path id="freepik--Eye--inject-57" d="M303,182.47c-.61,1.54-2.07,2.39-3.28,1.92s-1.69-2.1-1.09-3.63,2.07-2.39,3.27-1.92S303.6,180.94,303,182.47Z" style="fill:#37474f"></path><path d="M320.81,164.64c-.33-2.35-3.84-2.93-5.27-6.15s-.62-8.93-5.49-17.9c-2.69-5-1.59-5.7,4.12-2.53,4.88,2.71,10.77,8.75,11.1,15.46.27,5.65-1.78,9.09-1.15,10.88Z" style="fill:#F1592A"></path><path d="M320.81,164.64c-.33-2.35-3.84-2.93-5.27-6.15s-.62-8.93-5.49-17.9c-2.69-5-1.59-5.7,4.12-2.53,4.88,2.71,10.77,8.75,11.1,15.46.27,5.65-1.78,9.09-1.15,10.88Z" style="fill:#fff;opacity:0.1"></path><path d="M355.31,177.39c-5.52-8.95-10.07-13.78-22.74-16.57s-28.37,6.83-30.11,12.34-.17,9.47-7.38,14.55-15.48,7.64-16.64,11.46-.85,12.69,5.86,13.71c2.54,2.71,3.86,4.52,12.54,1.51s19.43-3.3,26.42-4.32c8.79-1.29,14.93-2.13,17.79-8.06C348.87,199.69,360.62,190.27,355.31,177.39Z" style="fill:#F1592A"></path><path d="M355.31,177.39c-5.52-8.95-10.07-13.78-22.74-16.57s-28.37,6.83-30.11,12.34-.17,9.47-7.38,14.55-15.48,7.64-16.64,11.46-.85,12.69,5.86,13.71c2.54,2.71,3.86,4.52,12.54,1.51s19.43-3.3,26.42-4.32c8.79-1.29,14.93-2.13,17.79-8.06C348.87,199.69,360.62,190.27,355.31,177.39Z" style="fill:#fff;opacity:0.30000000000000004"></path><path d="M284.3,212.88c2.54,2.71,3.86,4.52,12.54,1.51s19.43-3.3,26.43-4.32c8.78-1.29,14.92-2.13,17.78-8.06.82-7.48-11.13-16.22-21.83-6.89-9.3,8.11-19.4,10.53-26.22,10.44s-14.56-6.39-14.56-6.39C277.27,203,277.59,211.86,284.3,212.88Z" style="fill:#fafafa"></path><path d="M278.44,199.17a14.46,14.46,0,0,0-.46,4.14,14.3,14.3,0,0,0,.66,4.11A8.74,8.74,0,0,0,280.7,211a6.53,6.53,0,0,0,3.62,1.77h.05l0,0a11.08,11.08,0,0,0,2.82,2.45,6.51,6.51,0,0,0,3.63.48,38.13,38.13,0,0,0,7.32-2,76.92,76.92,0,0,1,15-2.75l7.59-.78c2.52-.29,5-.66,7.54-1.07a30.1,30.1,0,0,0,7.31-2,10.85,10.85,0,0,0,5.4-5.12,11,11,0,0,1-5.31,5.3,28.55,28.55,0,0,1-7.34,2.11c-2.52.44-5,.82-7.56,1.14l-7.58.84c-2.53.3-5.05.63-7.54,1.06a60.23,60.23,0,0,0-7.41,1.69,37.88,37.88,0,0,1-7.41,1.92,6.73,6.73,0,0,1-3.82-.55,11.19,11.19,0,0,1-2.89-2.54l.09.05a6.83,6.83,0,0,1-3.77-1.89,8.47,8.47,0,0,1-2.07-3.66,14.72,14.72,0,0,1-.57-4.17A14.47,14.47,0,0,1,278.44,199.17Z" style="fill:#e0e0e0"></path><path d="M315.36,206.23a1.43,1.43,0,0,0-2.55-.88,2.62,2.62,0,0,1,1.48.08c-1,2.78-5,5.95-8.78,6.82,1.48-.26,3-.48,4.44-.67h0c2.37-1,4.11-4.26,4.41-6.12A1.65,1.65,0,0,1,315.36,206.23Z" style="fill:#F1592A;opacity:0.5"></path><path d="M283.66,207.18c-2.9-2.68-5.31-5.39-5.22-8s16.82,6,14.59,7.24S283.66,207.18,283.66,207.18Z" style="fill:#37474f"></path><path d="M282.85,212.49a7,7,0,0,0,1.45.39,8.21,8.21,0,0,1-.64-5.7C282.09,209.11,282.81,212.29,282.85,212.49Z" style="fill:#F1592A;opacity:0.5"></path><path d="M333.52,169.35c.94-1.23-1.84-4.88-.95-8.53s8.82-12,15.33-15.91,6.49.77,6.48,7.55c0,8.37-3.39,16-8.65,17.83-4.39,1.53-7.71-.27-8.69,1.51Z" style="fill:#F1592A"></path><path d="M333.52,169.35c.94-1.23-1.84-4.88-.95-8.53s8.82-12,15.33-15.91,6.49.77,6.48,7.55c0,8.37-3.39,16-8.65,17.83-4.39,1.53-7.71-.27-8.69,1.51Z" style="fill:#fff;opacity:0.15"></path><path d="M333.52,169.35c1.21-.64.84-2.47.42-5.28-.45-3,.21-4.76,4-8.79s12.38-10.45,13.53-9.63c.19,4.08-1.46,10.88-2.64,14.51s-3,7.74-8.82,8.19c-2.12.17-3,3.45-3,3.45Z" style="fill:#fff;opacity:0.2"></path><path d="M320.57,184.24a3,3,0,1,1-2.88-3.08A3,3,0,0,1,320.57,184.24Z" style="fill:#37474f"></path></g><g id="freepik--Flag--inject-57"><path d="M400.92,97.2a1.43,1.43,0,0,1,1.25-.84A4.61,4.61,0,0,1,406,98a1.62,1.62,0,0,1,.43,1.51h0l-99.8,246.22-5.45-2.3Z" style="fill:#37474f"></path><path d="M404.66,96.86A3.89,3.89,0,0,1,406,98a1.62,1.62,0,0,1,.43,1.51h0l-99.8,246.22-2.45-1Z" style="fill:#263238"></path><path d="M302.45,342.6a4.63,4.63,0,0,1,3.87,1.59c.83,1.06.44,2.07-.87,2.25a4.63,4.63,0,0,1-3.87-1.59C300.75,343.79,301.14,342.78,302.45,342.6Z" style="fill:#263238"></path><path d="M436.64,158.33c8.93,19.94,19.54,33.52,33,42.25-5.9,14.6-13.25,32.76-19.15,47.37-13.45-8.73-24.06-22.31-33-42.24C423.39,191.1,430.74,172.94,436.64,158.33Z" style="fill:#37474f"></path><polygon points="423.05 203.28 417.49 205.71 436.64 158.33 439.1 163.58 423.05 203.28" style="fill:#263238"></polygon><path d="M434.37,183.62l-1.15,1c-.4-1.3-.59-1.95-1-3.27,0,1.27,0,1.9.06,3.16-.62-.52-.93-.78-1.54-1.31.5,1.15.75,1.72,1.27,2.84l-1,1.62c.61.17.92.26,1.55.42.14,1.33.21,2,.36,3.32l.62-2.38c.58,1,.87,1.46,1.47,2.41-.33-1.27-.49-1.92-.81-3.21l1.45-.19c-.65-.68-1-1-1.6-1.73C434.19,185.24,434.25,184.7,434.37,183.62Z" style="fill:#fafafa"></path><path d="M447.76,185.75l-1.23,1.13c-.5-1.14-.75-1.72-1.23-2.89.08,1.18.13,1.77.22,2.94-.72-.37-1.08-.57-1.79-1,.61,1,.93,1.48,1.55,2.45l-1,1.67c.69.06,1,.09,1.73.13.21,1.22.32,1.83.54,3,.23-.93.35-1.39.59-2.32.68.81,1,1.2,1.71,2-.41-1.12-.61-1.68-1-2.83.64-.16.95-.25,1.59-.43-.74-.52-1.11-.78-1.84-1.33C447.63,187.28,447.68,186.77,447.76,185.75Z" style="fill:#fafafa"></path><path d="M452.7,204.72,451.42,206c-.56-1-.84-1.47-1.39-2.48.13,1.09.19,1.63.32,2.7-.78-.22-1.17-.34-1.94-.6.68.83,1,1.23,1.73,2l-1.07,1.74c.74-.07,1.11-.1,1.85-.19.26,1.09.39,1.64.65,2.71.22-.9.34-1.36.56-2.26.74.62,1.11.92,1.86,1.51-.46-1-.69-1.44-1.14-2.43.67-.27,1-.41,1.67-.7-.8-.33-1.19-.51-2-.88C452.6,206.17,452.64,205.69,452.7,204.72Z" style="fill:#fafafa"></path><path d="M434.54,218.44l-1.24,1.14c-.5-1.14-.74-1.72-1.22-2.89.08,1.18.13,1.77.22,2.94-.73-.38-1.08-.57-1.79-1,.61,1,.92,1.49,1.55,2.45-.41.67-.62,1-1,1.67.69.07,1,.09,1.74.14.21,1.22.32,1.82.54,3l.58-2.31c.68.8,1,1.2,1.72,2-.41-1.12-.62-1.69-1-2.83l1.59-.44c-.74-.51-1.11-.78-1.84-1.32C434.41,220,434.45,219.47,434.54,218.44Z" style="fill:#fafafa"></path><path d="M444.69,207.77c-.07.82-.1,1.23-.17,2,.57.66.86,1,1.43,1.63-.62-.14-.93-.21-1.54-.37-.07.82-.11,1.23-.18,2-.31-.91-.47-1.37-.77-2.29l-1.53-.44,1.06-1c-.31-.94-.46-1.41-.75-2.36.55.71.83,1.06,1.4,1.74Z" style="fill:#fafafa"></path><path d="M401.64,104c16.39,10.45,29.79,27.61,40.56,52l-19.15,47.37c-10.78-24.34-24.17-41.49-40.57-51.94C388.38,136.73,395.73,118.57,401.64,104Z" style="fill:#455a64"></path><path d="M438.41,152.23a73.76,73.76,0,0,0-8.86-8.11,117.07,117.07,0,0,1,6.9,13c-.2.48-.4,1-.6,1.47-.71,1.78-1.08,2.68-1.8,4.46l-.6,1.51a115.46,115.46,0,0,0-6.91-13c1.92,5.95,3.44,11.85,4.95,17.82l-.33.82h0l-.7,1.75s-1.32-2.87-3.6-7.1c-2.06-7.36-4.47-14.71-7.26-21.91-1,2.48-1.51,3.75-2.5,6.17-.49-.69-1-1.37-1.51-2.05-.84-1.11-1.7-2.2-2.59-3.27-.68-.82-1.37-1.62-2.05-2.38-.53-.59-1.06-1.16-1.58-1.71,1-2.4,1.49-3.67,2.48-6.14a70.41,70.41,0,0,0-14.14-4.06c-.63-.45-1.21-.84-1.73-1.2h0l-.69-.45a1.28,1.28,0,0,0-.21-.14c-.43-.29-.82-.53-1.15-.72l-.4-.24,0,0-.18-.11-.1,0a.47.47,0,0,1-.09-.06h0l-.13-.07-.14-.09-.12-.06-.06,0c.35-.86.69-1.72,1-2.57a82.25,82.25,0,0,1,11.19,1.67,52.71,52.71,0,0,0-9.23-6.52q1.5-3.72,3-7.44a53.63,53.63,0,0,1,9.23,6.52,104.46,104.46,0,0,0-7.28-11.36l1.05-2.58c1.8,1.15,3.56,2.39,5.29,3.7,3.21,5.37,5.95,10.45,8.83,16.23l2.43-6a105.44,105.44,0,0,1,7.75,9.37l-2.43,6a119.79,119.79,0,0,1,11.87,8.83c1.37,2.48,2.71,5.06,4,7.73Z" style="fill:#fafafa"></path><path d="M413,143.79c.89,1.07,1.75,2.16,2.59,3.27,1.41-3.46,2.13-5.24,3.55-8.76A164.39,164.39,0,0,1,434.05,163c.72-1.78,1.09-2.68,1.8-4.46a163.39,163.39,0,0,0-14.91-24.72c1.4-3.46,2.12-5.25,3.48-8.6-1.51-2-3.06-3.84-4.65-5.63l-3.48,8.6A92,92,0,0,0,398,112.86l-1.8,4.46a92,92,0,0,1,18.25,15.36c-1.42,3.5-2.14,5.29-3.54,8.73C411.63,142.17,412.32,143,413,143.79Z" style="fill:#F1592A"></path><path d="M412.73,122.31a136.74,136.74,0,0,0-11.1-18.39c-.28.7-.42,1-.71,1.75a118.45,118.45,0,0,1,8.52,13.55C410.77,120.4,411.43,121,412.73,122.31Z" style="fill:#F1592A"></path><path d="M422.42,145.13a247.46,247.46,0,0,1,8,26.82c.29-.7.43-1,.71-1.75-1.65-6.92-3.62-13.87-5.91-20.75C424.14,147.68,423.57,146.82,422.42,145.13Z" style="fill:#F1592A"></path><path d="M412.32,132.45l-.12.3A60.47,60.47,0,0,0,396,128.3h0l-.9-.59c-.43-.29-.82-.53-1.15-.72l-.4-.24,0,0-.79-.45-.06,0h0a62.11,62.11,0,0,1,17,3.46C410.73,130.76,411.26,131.31,412.32,132.45Z" style="fill:#F1592A"></path><path d="M439.13,149.3q-1.19-2.42-2.41-4.72a83,83,0,0,0-13.54-10.45l-.1.25c1,1.38,1.52,2.09,2.51,3.54A85.56,85.56,0,0,1,439.13,149.3Z" style="fill:#F1592A"></path><path d="M433.45,164.53h0l-.14.36C433.35,164.77,433.4,164.65,433.45,164.53Z" style="fill:#455a64"></path><path d="M400.58,106.52c-.78,1.94-1.18,2.91-2,4.86h0l2-4.86Z" style="fill:#455a64"></path><path d="M395.61,118.81l-2,4.86h0l1.95-4.85Z" style="fill:#455a64"></path><path d="M436.45,157.08v0c.78-1.94,1.18-2.91,2-4.86h0C437.76,153.85,437.11,155.46,436.45,157.08Z" style="fill:#455a64"></path><path d="M409.25,153.84l-1.92,1.83c-.81-1.59-1.23-2.36-2.07-3.86.2,1.63.29,2.45.47,4.12-1.16-.4-1.75-.57-2.94-.89,1.06,1.17,1.59,1.78,2.62,3.05-.64,1-1,1.57-1.61,2.61,1.11,0,1.66-.07,2.75-.08.35,1.78.52,2.68.86,4.5.35-1.41.53-2.11.89-3.52,1,1.2,1.55,1.82,2.56,3.11-.59-1.8-.89-2.68-1.5-4.41,1-.26,1.44-.39,2.39-.62-1.1-.85-1.66-1.25-2.79-2C409.08,156.13,409.14,155.36,409.25,153.84Z" style="fill:#fafafa"></path><path d="M393.48,126.72l-.79-.45C392.81,126.33,393.08,126.48,393.48,126.72Z" style="fill:#F1592A"></path><path d="M395.07,127.71c.28.17.59.38.91.59h0Z" style="fill:#F1592A"></path></g><g id="freepik--Hand--inject-57"><path d="M303.13,318.29c-1.85,5.5-2.37,12.29-.38,16.12s4.95,4.63,7.22,4.38,4.55-3,3.51-5.5c2.7.43,4.81-4.06,3.15-7.42a6.83,6.83,0,0,0-.31-8.12c-2-2.26-4.57-4.24-3.67-9.95C312.65,307.8,305,312.79,303.13,318.29Z" style="fill:#F1592A"></path><path d="M303.13,318.29c-1.85,5.5-2.37,12.29-.38,16.12s4.95,4.63,7.22,4.38,4.55-3,3.51-5.5c2.7.43,4.81-4.06,3.15-7.42a6.83,6.83,0,0,0-.31-8.12c-2-2.26-4.57-4.24-3.67-9.95C312.65,307.8,305,312.79,303.13,318.29Z" style="fill:#fff;opacity:0.1"></path><path d="M316.63,325.87a5.14,5.14,0,0,0,.82-1.58,13,13,0,0,1-6.91-3.91C311.19,322.69,313.62,324.54,316.63,325.87Z" style="opacity:0.1"></path><path d="M305.39,326.79c-.63,2.13,1.79,7.18,8.32,8.16a3.46,3.46,0,0,0-.23-1.66C311.16,332.92,306.19,330.84,305.39,326.79Z" style="opacity:0.1"></path></g><g id="freepik--arm--inject-57"><path d="M371.17,276.76c-5.11,12.39-8.49,10.86-18.17,14.81-6.43,2.63-12.77,7-19.38,12-4.8,3.65-6.72,8.45-12,7.71-7.9-1.12-7.76,3.66-13.33,5.63-4.55,1.61-6.57-3.08-5.94-4.9-3.73-1.51-3.93-5.88-1.52-8.72a5.89,5.89,0,0,1-1.19-6.5c2.11-5.18,11.28-5.16,19.18-4.05,11.47,1.62,31.25-11.17,32.39-13.26s-2.88-21.54,0-34.92c2-9.11,9.83-15.75,15.12-13.26C373.92,234.86,382.13,250.19,371.17,276.76Z" style="fill:#F1592A"></path><path d="M371.17,276.76c-5.11,12.39-8.49,10.86-18.17,14.81-6.43,2.63-12.77,7-19.38,12-4.8,3.65-6.72,8.45-12,7.71-7.9-1.12-7.76,3.66-13.33,5.63-4.55,1.61-6.57-3.08-5.94-4.9-3.73-1.51-3.93-5.88-1.52-8.72a5.89,5.89,0,0,1-1.19-6.5c2.11-5.18,11.28-5.16,19.18-4.05,11.47,1.62,31.25-11.17,32.39-13.26s-2.88-21.54,0-34.92c2-9.11,9.83-15.75,15.12-13.26C373.92,234.86,382.13,250.19,371.17,276.76Z" style="fill:#fff;opacity:0.30000000000000004"></path><path d="M312.48,304.35s-4.49-1.55-9.08,2.45a8.31,8.31,0,0,0-2.59,4.24,5.39,5.39,0,0,0,1.58,1C302.51,308.46,307.48,304.28,312.48,304.35Z" style="fill:#F1592A;opacity:0.5"></path><path d="M311.78,299.56c-2.16-2.31-8.94-1.54-12,2.25a5.84,5.84,0,0,0,1.07,1.5C304.53,299.89,308.77,299,311.78,299.56Z" style="fill:#F1592A;opacity:0.5"></path><path d="M354.88,241.17a32,32,0,0,0-2.13,12.5,8.31,8.31,0,0,0,.46,3.06c.29.71.91,1.41,1.66,1.33s1.14-.75,1.45-1.37c1.88-3.77,2.67-8.36,6-11,1.42-1.11,3.2-1.75,4.45-3a5.81,5.81,0,0,0,1.31-5.67c-1.34-4.21-5-4.39-8.27-2.14A14.15,14.15,0,0,0,354.88,241.17Z" style="fill:#fff;opacity:0.2"></path></g></g></g><g id="freepik--Character--inject-57"><g id="freepik--character--inject-57"><g id="freepik--Botom--inject-57"><path d="M175,383.15c.2-5.11,3-52.73,3-52.73l-24.85,18.63c3.87,29.46,5.5,34.17,5.78,39.08h0a4.51,4.51,0,0,0-.09,1.26c.25,5.83,7,8.73,12.35,12.43a97.89,97.89,0,0,0,14.37,8.55c3.84,1.74,11.5,1.63,12.36-.8-6.49-4.54-14-9.49-19.22-14.75C176.21,392.31,174.74,389.29,175,383.15Z" style="fill:#ffc4c3"></path><path d="M205.49,415.52c.31,0,.89,3.5-.69,5.06-1.84,1.81-7.3,4.86-14.69,4.12s-11.46-3-14.5-5.49-7.3-6-10.65-6.67c-3.12-.61-6.53-2-7.56-2.94s-1.05-5.48-1.05-5.48Z" style="fill:#263238"></path><path d="M158.84,386.71s-.8,0-1,1c-.18,1.25-.4,4.88-.81,6.93-.57,2.86-1,8.71-.53,11s5.58,3.71,8.85,4.88a40.75,40.75,0,0,1,10.68,6.59c3.57,2.89,10.95,5.64,15.75,5.54,7.32-.16,12-2.44,13.34-5.28,1.69-3.51,1-5.94-7.52-9.75a100,100,0,0,1-9.55-5.47A29,29,0,0,1,177,388.89a3.38,3.38,0,0,0-1.28-1.82,2.62,2.62,0,0,0-1.64-.09c-1.39.26-5.42.94-6.68,1.64-1.1.61-2.68,1.33-2.6,2.86a5.5,5.5,0,0,0,.37,1.54c.12.31.21.72,0,.92s-.57,0-.8-.2a23.68,23.68,0,0,1-2.37-2.8,9.07,9.07,0,0,0-1.38-1.39,13.17,13.17,0,0,1-1.48-.93S158.89,387.42,158.84,386.71Z" style="fill:#455a64"></path><path d="M197.89,407.64c-10.56,1.16-15,8.4-13.65,13.64a24,24,0,0,0,7.59,1.39c7.32-.16,12.28-2.45,13.64-5.28C207.06,414.07,205.51,410.38,197.89,407.64Z" style="fill:#fafafa"></path><path d="M183.5,409.23a.47.47,0,0,1-.33-.11.57.57,0,0,1-.1-.77c1.41-2,5.57-4.65,9.43-4.35a.53.53,0,0,1,.48.58.52.52,0,0,1-.55.51c-3.61-.27-7.42,2.37-8.53,3.93A.5.5,0,0,1,183.5,409.23Z" style="fill:#f0f0f0"></path><path d="M179.23,406.55a.52.52,0,0,1-.33-.11.57.57,0,0,1-.1-.77c1.4-2,5.57-4.67,9.43-4.36a.54.54,0,0,1,.48.59.52.52,0,0,1-.55.51c-3.61-.28-7.42,2.36-8.53,3.92A.53.53,0,0,1,179.23,406.55Z" style="fill:#f0f0f0"></path><path d="M175,403.11a.47.47,0,0,1-.33-.11.57.57,0,0,1-.1-.77c1.4-2,5.58-4.66,9.43-4.35a.55.55,0,0,1-.07,1.09c-3.61-.27-7.42,2.37-8.54,3.93A.48.48,0,0,1,175,403.11Z" style="fill:#f0f0f0"></path><path d="M170.84,399.66a.43.43,0,0,1-.32-.11.55.55,0,0,1-.12-.76c1.93-2.79,6.45-4.75,10.31-4.44a.55.55,0,0,1-.07,1.09c-3.47-.27-7.69,1.53-9.4,4A.5.5,0,0,1,170.84,399.66Z" style="fill:#f0f0f0"></path><path d="M129.42,346.41l-25.12-4.27c-.34,16.16.25,33.13.77,48,.09,2.86-1.09,22.15-.18,28.06,1.36,8.87,12.8,8,13.65,2.79s1.23-27.64,1.37-30c.34-9.71,4.92-21.61,8.31-39C128.39,351.22,129.26,347.24,129.42,346.41Z" style="fill:#ffc4c3"></path><path d="M122.66,424.82c0,5.18-.65,8.66-2.46,11.81s-5.51,4.33-9.38,3.67-8.92-2.74-10.3-7.13-1.35-7.46-.79-12.3Z" style="fill:#263238"></path><path d="M105,388.52c-1.57.21-1.51,7-2,14-.49,7.5-2.72,10.72-3.2,16.88-.54,7,.06,10.13,3,14.19s12.62,7.62,16.88,1.31c3.47-5.15,3.28-10.62,2.49-17.57a164.61,164.61,0,0,1-1.48-17.71c0-5.24.75-10.13-.66-10.63,0,.77-.09,1.75-.16,2.51,0,.58,0,3.42-.9,3.5a9.89,9.89,0,0,1-.15-2,2.21,2.21,0,0,0-.53-1.66,5.93,5.93,0,0,0-2.5-.79c-1.56-.19-3.14-.35-4.72-.39-.78,0-1.57,0-2.36,0a6.88,6.88,0,0,0-2,.38,1.36,1.36,0,0,0-.81.76,2,2,0,0,0,0,.8,5.43,5.43,0,0,1-.11,1.45c0,.21-.18.47-.41.43a.4.4,0,0,1-.28-.4c-.06-.85,0-1.47,0-2.45,0-.45,0-.88-.06-1.33S105,389,105,388.52Z" style="fill:#455a64"></path><path d="M99.66,423.44c0,4.35.46,7.3,2.76,10.47,2.93,4.06,13.38,7.6,17.64,1.28,2.12-3.14,2.51-6.73,2.6-10.38C119.58,420.33,103.79,419.21,99.66,423.44Z" style="fill:#fafafa"></path><path d="M118.14,417.47a.48.48,0,0,1-.2,0A24.91,24.91,0,0,0,104.3,417a.59.59,0,0,1-.73-.36.54.54,0,0,1,.4-.67,25.76,25.76,0,0,1,14.42.51.53.53,0,0,1,.32.7A.6.6,0,0,1,118.14,417.47Z" style="fill:#f0f0f0"></path><path d="M104.35,411.74a.58.58,0,0,1-.52-.33.52.52,0,0,1,.32-.7c6.91-2.61,14.09.26,14.39.38a.51.51,0,0,1,.29.71.62.62,0,0,1-.77.27c-.07,0-7-2.81-13.47-.37A.67.67,0,0,1,104.35,411.74Z" style="fill:#f0f0f0"></path><path d="M104.44,406.82a.6.6,0,0,1-.52-.33.53.53,0,0,1,.31-.7,19.52,19.52,0,0,1,14.68.32.51.51,0,0,1,.24.72.61.61,0,0,1-.79.23,18.63,18.63,0,0,0-13.67-.29A.74.74,0,0,1,104.44,406.82Z" style="fill:#f0f0f0"></path><path d="M104.56,401.28a.59.59,0,0,1-.51-.32.52.52,0,0,1,.3-.7c7.11-2.94,14.48.32,14.79.46a.52.52,0,0,1,.26.72.59.59,0,0,1-.78.24c-.07,0-7.2-3.17-13.8-.45A.58.58,0,0,1,104.56,401.28Z" style="fill:#ebebeb"></path><path d="M113,229.59c0,29.37-3.91,79.63-3.91,79.63-.35,3.62-5,19.59-5.27,32.63-.53,20.95.28,31.18.28,31.18s11.08,4.3,19.08,1c0,0,10.24-37.85,12.91-51.49,3.19-16.24,10.76-39.54,10.76-39.54l5.34,34.36s-1.68,15.28,0,27.91c1.14,8.6,4.23,26.86,4.23,26.86s10.65,3.55,19.36.66c0,0,3.49-51.74,4-59.67s.46-40.4-1.42-90.44Z" style="fill:#455a64"></path><path d="M155.31,367c4.46,3.56,16.78,3.41,21,1.07l-.54,8s-10.83,3.47-19.21-.56Z" style="fill:#37474f"></path><path d="M103.68,367.13c4,4.06,16,5.34,20.56,3.53l-2.11,7.93s-10.09,2.19-17.93-2.8Z" style="fill:#37474f"></path><path d="M146.82,283l4.45-27.81a23.47,23.47,0,0,0,15-6.67s-.7,6.41-12.61,10.52l-4.08,23.08,2.62,35.24Z" style="fill:#37474f"></path></g><g id="freepik--Top--inject-57"><path d="M252.1,149.06c-2.08.3-7.53,4.07-7.68,3.86s1.2-1.59,2.25-2.63c1.53-1.51,1.76-1.6,3.87-3.49,1.47-1.32,4-3.08,4.17-3.94.08-.38-.55-.88-1-1-2.06-.71-3.84.42-6.85,2.86-3.31,2.68-5.6,5.25-5.82,4.89a39.32,39.32,0,0,1,3.39-4.73,92.58,92.58,0,0,1,6.67-7.73c.51-.55.15-2.11-2-2-1.86.12-3.54,1.77-6.37,5.06-3.07,3.58-5.71,7.18-6,7s2.51-3.51,5-7.4,3.6-5.38,3.13-5.95c-.82-1-2.61-1.24-4.74,1.27s-7.92,11-9.16,12.75-2.28,2.16-3.15-.16-.37-3.88-2.73-6-4.84-2-4-.08a26.88,26.88,0,0,1,1.57,10.18c-.13,4.06.57,6.42-.09,9a7.63,7.63,0,0,1-1.33,2.62l-17.12,14.39c-6.72-9.43-15.05-19.46-18.69-23.89-7.56-9.18-11.78-12.81-18.06-14l6.34,34.92S185.5,188.47,192,195.05s10.65,9,14.74,5.63c4.39-3.59,21.74-24.29,24.23-27.27,1.06-1.1,1.93-2,2.45-2.6,2.65-2.92,5.7-6.46,8.57-9.22s10.59-9.27,12-10.63S253.89,148.8,252.1,149.06Zm-21.17,24.36Z" style="fill:#ffc4c3"></path><path d="M230.27,151.75c2.15,2.62,1,7.5-.82,10.39C232.48,159.21,233.92,155.25,230.27,151.75Z" style="fill:#ffa8a7"></path><path d="M166.45,139c4.67,1,9.69,3.09,15.52,9.68,4,4.55,19.37,24.32,19.37,24.32s-11.24,5.74-15.45,16.15l-15-16Z" style="fill:#F1592A"></path><path d="M204.24,177.77c-3.7,2.83-7.24,8-7.63,12-.05-6.23,2.23-10.41,6.37-13.76Z" style="fill:#ffa8a7"></path><path d="M176.38,159.87c-1.52-21-6.8-20.66-18.87-22.67-6.95-1.15-13.29-1.64-19-.9a131.41,131.41,0,0,0-22.14,4.58l-3.57,44.38v48.68c13.53,8.58,51.68,3.4,66-5.22C179.28,215.66,177.52,175.55,176.38,159.87Z" style="fill:#263238"></path><g id="freepik--head--inject-57"><path d="M134,118.65l-.37-6.34s4-5.58,4.45-10.14c.54-5.87-.71-8.26-.71-8.26-2-1.54-6.63-5.37-9.25-5.59-3.76-.32-6.46,2.72-7.89,7.19-1.66,5.15.27,12,1.32,14.7,2.66,6.86,8.55,13.82,10.86,16.74.19.24.43.5.73.48s.57-.44.66-.79C134.42,124.1,134,121.25,134,118.65Z" style="fill:#f0997a"></path><path d="M128.16,87.92c-2.24,9.11,16.57,28.31,26,28.22s15.78-12.49,15.69-21.88-4-14.48-18.25-17.13C142.33,75.41,130.24,79.45,128.16,87.92Z" style="fill:#f0997a"></path><path d="M126.15,121.22c3.74,1.43,5.75-1,5.75-1l.72,19.44a14.92,14.92,0,0,0,6.84,6.54c4.67,2,10.6,2.95,14.49,1.47s6-4.55.31-9.32l-.21-5.76a34.67,34.67,0,0,0,6.6-.09c4.18-.68,6.78-4,8-8.53,2-7.28,1.81-16.56-1.08-30.65-4.7-3.6-20.46-5.69-30.25.6.53,8.31-.73,11.18-1,12.43s-1.87,4.55-2.94,4.72c-2,.31-2.33-1.85-3.62-3.19s-6.18-2.08-8.23,2.34S123.27,120.12,126.15,121.22Z" style="fill:#ffc4c3"></path><path d="M173.66,101a21.15,21.15,0,0,0-2.34-12,19.59,19.59,0,0,0-4.69-5.49,16.09,16.09,0,0,1,5.08,1.71c-2.05-4-6-6.47-10.1-8.08a36.48,36.48,0,0,0-14.9-1.79c-4.52.48-17,2.91-18.63,13l9.25,5.59c6.55,4.61,15.71,4.63,19.76,3.65a13.79,13.79,0,0,1-5.67-3.22C159.55,93.72,167.58,95.61,173.66,101Z" style="fill:#f0997a"></path><path d="M154.05,132.58c-6.66-.62-14.94-3.65-17.09-6.69a22.59,22.59,0,0,1-3-5.52s.29,5.25,1.92,7.91,7.82,7.13,18.25,7.77Z" style="fill:#ffa8a7"></path><path d="M149.16,106.8a2.08,2.08,0,0,1-2,2.15,2.14,2.14,0,1,1,2-2.15Z" style="fill:#263238"></path><path d="M147.45,100.45l-4.62,2a2.65,2.65,0,0,1,1.35-3.4A2.47,2.47,0,0,1,147.45,100.45Z" style="fill:#f0997a"></path><path d="M166.4,101.55l-4.92-1.23a2.43,2.43,0,0,1,3-1.89A2.67,2.67,0,0,1,166.4,101.55Z" style="fill:#f0997a"></path><path d="M165.6,106a2.06,2.06,0,1,1-2.08-2.12A2.1,2.1,0,0,1,165.6,106Z" style="fill:#263238"></path><polygon points="162.89 113.2 156.01 115.89 154.15 102.28 162.89 113.2" style="fill:#ffa8a7"></polygon><path d="M149.06,118l7.58,2.55a3.93,3.93,0,0,1-5,2.65A4.19,4.19,0,0,1,149.06,118Z" style="fill:#b16668"></path><path d="M149.86,119.41a4.63,4.63,0,0,0-1-.1,4.13,4.13,0,0,0,2.75,3.93,4,4,0,0,0,1.27.19A3.66,3.66,0,0,0,149.86,119.41Z" style="fill:#f28f8f"></path></g><path d="M102.75,248.84c-3.53,1-8.06-3.39-9.3-4.92s.35-5.16,1.1-8.23,0-8.26,3.8-6.8S110.12,240.59,102.75,248.84Z" style="fill:#ffa8a7"></path><path d="M116.16,142.94c-10.16,2-10.64,2.85-17.19,14.45-7,12.34-17.66,32.13-19.92,37s-4.43,8.37,1.64,15.81c5.41,6.63,21.38,25.75,23.75,28.48,2.09,2.43-.26,9.55-7.46,8.52,0,0,5.48,4.85,8.49,4.31,2.6-.46,6.69-2.74,10.44-10.62,2.36-5,.38-8.88-3.22-14.41-4.29-6.61-13.58-25.05-13.58-25.05l18.13-30S124.54,151.69,116.16,142.94Z" style="fill:#ffc4c3"></path><path d="M116.33,140.88c-5.84,1.54-9.3,2.16-11.9,5.71s-17.93,32-17.93,32a22.73,22.73,0,0,0,19.6,12.56l12.12-18.56S127.75,149.67,116.33,140.88Z" style="fill:#F1592A"></path></g></g></g></svg>