<?xml version="1.0" encoding="UTF-8"?>
<svg xmlns="http://www.w3.org/2000/svg" xmlns:xlink="http://www.w3.org/1999/xlink" width="334px" height="334px" viewBox="0 0 334 334" version="1.1">
<g id="surface1">
<path style=" stroke:none;fill-rule:nonzero;fill:rgb(85.098039%,92.54902%,96.470588%);fill-opacity:1;" d="M 302.097656 280.835938 L 225.222656 296.542969 C 211.519531 299.34375 198.585938 287.363281 195.933594 269.410156 C 193.167969 250.699219 179.292969 238.625 165.164062 242.636719 L 35.058594 279.554688 C 25.855469 282.164062 18.433594 291.105469 15.628906 302.953125 C 13.765625 310.824219 18.222656 318.816406 24.472656 318.816406 L 304.316406 318.816406 C 312.316406 318.816406 318.800781 310.261719 318.800781 299.714844 C 318.796875 288 310.875 279.042969 302.097656 280.835938 Z M 302.097656 280.835938 "/>
<path style=" stroke:none;fill-rule:nonzero;fill:rgb(100%,43.137255%,27.843137%);fill-opacity:1;" d="M 123.046875 67.414062 C 124.851562 63.644531 127.378906 60.773438 131.589844 60.878906 C 137.726562 61.035156 141.371094 70.058594 138.21875 77.003906 L 116.792969 126.898438 L 100.796875 153.207031 C 98.734375 156.527344 94.984375 156.917969 92.550781 154.0625 L 89.433594 150.402344 C 87.167969 147.746094 86.867188 143.226562 88.746094 140.089844 L 104.199219 115.972656 Z M 123.046875 67.414062 "/>
<path style=" stroke:none;fill-rule:nonzero;fill:rgb(61.568627%,31.764706%,31.764706%);fill-opacity:1;" d="M 173.65625 307.007812 C 173.578125 304.742188 173.492188 301.542969 173.703125 297.222656 C 173.890625 293.347656 171.886719 289.886719 169.003906 289.105469 C 166.914062 288.539062 164.933594 290.542969 164.8125 293.351562 C 164.636719 297.300781 164.285156 302.550781 163.15625 307.210938 C 163.128906 307.320312 163.101562 307.410156 163.074219 307.515625 C 168.664062 315.980469 172.289062 316.214844 173.65625 307.007812 Z M 173.65625 307.007812 "/>
<path style=" stroke:none;fill-rule:nonzero;fill:rgb(61.568627%,31.764706%,31.764706%);fill-opacity:1;" d="M 173.65625 307.007812 C 173.164062 308.523438 172.628906 310.769531 171.398438 309.785156 C 170.304688 308.910156 170.5625 305.960938 168.019531 305.589844 C 166.058594 305.304688 164.472656 306.144531 163.070312 307.511719 C 162.554688 309.546875 161.957031 310.976562 161.328125 311.957031 C 160.046875 313.953125 159.84375 316.226562 159.84375 318.820312 L 173.660156 318.820312 C 173.882812 317.828125 173.84375 312.953125 173.710938 308.5625 C 173.699219 308.109375 173.679688 307.582031 173.65625 307.007812 Z M 173.65625 307.007812 "/>
<path style=" stroke:none;fill-rule:nonzero;fill:rgb(61.568627%,31.764706%,31.764706%);fill-opacity:1;" d="M 132.160156 308.183594 C 132.042969 305.777344 131.4375 300.929688 131.964844 295.628906 L 132.65625 288.667969 L 122.980469 289.082031 C 122.175781 291.957031 124.222656 299.359375 117.304688 306.667969 C 121.207031 312.5 125.546875 316.109375 132.160156 308.183594 Z M 132.160156 308.183594 "/>
<path style=" stroke:none;fill-rule:nonzero;fill:rgb(61.568627%,31.764706%,31.764706%);fill-opacity:1;" d="M 132.160156 308.183594 C 129.386719 309.894531 125.953125 311.058594 123.132812 310.527344 C 120.367188 310.003906 120.257812 307.417969 117.308594 306.664062 C 117.136719 306.84375 116.988281 307.023438 116.804688 307.203125 C 114.578125 309.414062 112.035156 310.921875 109.429688 311.953125 C 104.378906 313.953125 103.394531 316.222656 103.167969 318.820312 L 131.089844 318.820312 C 132.03125 317.828125 132.316406 312.949219 132.183594 308.558594 C 132.175781 308.449219 132.164062 308.304688 132.160156 308.183594 Z M 132.160156 308.183594 "/>
<path style=" stroke:none;fill-rule:nonzero;fill:rgb(0%,24.705882%,40%);fill-opacity:1;" d="M 174.339844 171.601562 C 163.285156 173.519531 153.179688 183.960938 150.894531 196.65625 L 132.046875 301.550781 L 116.285156 300.984375 L 131.71875 149.589844 C 131.9375 146.734375 132.667969 142.042969 133.917969 136.984375 L 175.96875 126.589844 L 177.089844 132.515625 Z M 174.339844 171.601562 "/>
<path style=" stroke:none;fill-rule:nonzero;fill:rgb(100%,43.137255%,27.843137%);fill-opacity:1;" d="M 142.203125 148.53125 C 136.613281 148.550781 131.664062 143.785156 129.964844 136.761719 L 127.359375 125.976562 C 125.128906 116.722656 122.160156 107.535156 118.515625 98.546875 C 116.019531 92.402344 116.078125 85 118.523438 78.816406 L 126.589844 58.390625 C 127.234375 56.761719 128.617188 55.894531 129.980469 56.257812 L 148.128906 61.128906 C 155.753906 63.175781 162.601562 70.835938 164.917969 79.921875 L 175.171875 120.132812 C 177.886719 130.769531 172.707031 142.074219 164.308594 143.851562 Z M 142.203125 148.53125 "/>
<path style=" stroke:none;fill-rule:nonzero;fill:rgb(75.686275%,34.901961%,32.941176%);fill-opacity:1;" d="M 144.234375 73.824219 C 144.472656 68.449219 146.507812 63.664062 149.347656 61.570312 C 156.472656 64.070312 162.726562 71.328125 164.917969 79.921875 L 175.175781 120.132812 C 177.886719 130.769531 172.707031 142.074219 164.308594 143.851562 L 159.761719 144.816406 L 147.265625 140.640625 L 163.457031 108.515625 L 150.410156 95.523438 C 144.09375 89.234375 143.882812 81.667969 144.234375 73.824219 Z M 144.234375 73.824219 "/>
<path style=" stroke:none;fill-rule:nonzero;fill:rgb(0%,28.627451%,43.921569%);fill-opacity:1;" d="M 146.683594 108.90625 L 125.925781 110.414062 L 125.457031 108.527344 C 125.007812 106.722656 124.445312 104.6875 123.835938 102.476562 C 121.9375 95.621094 119.601562 87.179688 118.652344 78.484375 L 122.171875 69.578125 C 121.890625 80.328125 125.078125 91.894531 127.515625 100.703125 C 127.9375 102.238281 128.339844 103.683594 128.699219 105.039062 L 141.429688 104.113281 C 138.378906 91.167969 135.679688 76.742188 143.210938 59.808594 L 147.324219 60.914062 C 139.265625 77.761719 142.5625 91.714844 145.804688 105.242188 Z M 146.683594 108.90625 "/>
<path style=" stroke:none;fill-rule:nonzero;fill:rgb(0%,24.705882%,40%);fill-opacity:1;" d="M 130.730469 159.285156 C 132.070312 138.253906 127.011719 114.863281 122.667969 98.003906 L 143.132812 92.515625 C 151.425781 122.105469 161.328125 129.402344 176.820312 126.589844 C 177.863281 130.25 178.292969 134.695312 178.445312 140.402344 C 178.683594 149.351562 178.402344 177.980469 177.445312 301.554688 L 162.191406 301.554688 L 151.859375 169.152344 Z M 130.730469 159.285156 "/>
<path style=" stroke:none;fill-rule:nonzero;fill:rgb(13.72549%,13.72549%,25.490196%);fill-opacity:1;" d="M 173.441406 298.082031 C 173.449219 298.082031 173.457031 298.082031 173.464844 298.082031 C 174.1875 298.066406 174.757812 297.277344 174.746094 296.332031 L 172.535156 128.960938 C 172.523438 128.007812 171.921875 127.25 171.207031 127.265625 C 170.488281 127.285156 169.914062 128.070312 169.925781 129.019531 L 172.136719 296.386719 C 172.148438 297.332031 172.730469 298.082031 173.441406 298.082031 Z M 173.441406 298.082031 "/>
<path style=" stroke:none;fill-rule:nonzero;fill:rgb(100%,65.098039%,52.156863%);fill-opacity:1;" d="M 122.742188 41.359375 L 122.023438 41.699219 C 117.519531 43.828125 115.238281 49.71875 116.910156 54.921875 L 120.28125 65.433594 C 120.988281 67.636719 122.050781 69.65625 123.417969 71.386719 C 125.070312 73.476562 128.015625 73.160156 129.398438 70.746094 L 133.632812 63.335938 C 134.8125 61.269531 135.140625 58.71875 134.519531 56.394531 L 132.097656 43.785156 L 129.3125 41.230469 Z M 122.742188 41.359375 "/>
<path style=" stroke:none;fill-rule:nonzero;fill:rgb(13.72549%,13.72549%,25.490196%);fill-opacity:1;" d="M 104.21875 34.894531 C 103.636719 30.050781 105.335938 25.214844 108.507812 22.652344 C 116.363281 16.308594 115.964844 16.597656 115.964844 16.597656 C 118.992188 14.289062 122.507812 14.996094 124.875 17.34375 C 125.347656 17.8125 125.859375 18.179688 126.394531 18.445312 C 128.828125 19.652344 130.988281 21.652344 132.25 24.652344 L 132.257812 24.675781 C 133.863281 28.503906 134.308594 32.992188 133.5 37.234375 L 132.664062 41.625 C 131.976562 45.242188 129.402344 47.675781 126.585938 47.375 L 109.339844 45.527344 C 108.84375 45.472656 108.34375 45.558594 107.847656 45.625 L 105.097656 38.472656 C 104.667969 37.347656 104.371094 36.140625 104.21875 34.894531 Z M 104.21875 34.894531 "/>
<path style=" stroke:none;fill-rule:nonzero;fill:rgb(100%,65.098039%,52.156863%);fill-opacity:1;" d="M 129.515625 43.390625 C 127.742188 41.574219 126.574219 38.042969 125.707031 33.664062 C 124.675781 29.96875 121.75 27.820312 118.824219 28.617188 L 111.480469 30.628906 C 109.085938 31.28125 107.132812 33.753906 106.777344 36.945312 C 106.554688 38.964844 106.625 41.078125 107.042969 43.1875 L 109.632812 56.363281 C 110.851562 62.570312 115.566406 66.40625 120.316406 65.054688 C 124.71875 63.804688 128.417969 59.886719 130.292969 54.488281 C 131.046875 52.320312 131.148438 49.855469 130.578125 47.589844 Z M 129.515625 43.390625 "/>
<path style=" stroke:none;fill-rule:nonzero;fill:rgb(100%,65.098039%,52.156863%);fill-opacity:1;" d="M 130.769531 48.96875 C 133.296875 48.757812 135.21875 45.210938 135.125 40.914062 C 135.0625 37.875 133.375 35.605469 131.628906 36.207031 C 130.257812 36.679688 129.34375 38.816406 129.492188 41.191406 L 129.898438 47.695312 C 129.941406 48.441406 130.332031 49.003906 130.769531 48.96875 Z M 130.769531 48.96875 "/>
<path style=" stroke:none;fill-rule:nonzero;fill:rgb(13.72549%,13.72549%,25.490196%);fill-opacity:1;" d="M 129.707031 37.316406 C 130.246094 40.953125 131.230469 44.453125 131.796875 48.085938 C 132.675781 53.757812 131.742188 59.128906 128.867188 63.511719 C 126.480469 67.148438 121.835938 68.445312 118.367188 68.449219 C 116.363281 68.453125 114.71875 67.589844 113.367188 66.144531 C 111.933594 64.613281 110.988281 62.425781 110.476562 60.085938 L 109.328125 54.828125 C 109.773438 55.867188 110.800781 56.917969 111.613281 56.21875 C 112.296875 55.628906 112.367188 55.550781 112.921875 53.550781 C 113.691406 50.777344 120.949219 47.847656 123.332031 51.421875 C 123.886719 52.257812 124.171875 52.449219 125.007812 52.660156 C 127.402344 53.265625 129.042969 48.59375 128.082031 40.824219 Z M 129.707031 37.316406 "/>
<path style=" stroke:none;fill-rule:nonzero;fill:rgb(100%,85.098039%,62.745098%);fill-opacity:1;" d="M 98.359375 160.25 L 95.707031 156.644531 C 94.308594 154.746094 92.066406 154.878906 90.625 156.714844 C 89.453125 158.203125 88.058594 159.347656 86.5 160.25 L 76.835938 160.25 L 80.980469 151.289062 C 82.472656 148.0625 84.855469 145.726562 87.628906 144.777344 L 90.578125 143.769531 C 93.484375 142.777344 94.785156 144.816406 96.847656 149.242188 L 101.851562 160.25 Z M 98.359375 160.25 "/>
<path style=" stroke:none;fill-rule:nonzero;fill:rgb(100%,43.137255%,27.843137%);fill-opacity:1;" d="M 151.070312 138.703125 L 166.652344 107.796875 L 151.835938 93.042969 C 146.730469 87.957031 146.21875 82.296875 146.585938 74.007812 C 146.917969 66.640625 151.25 60.492188 155.730469 65.09375 L 180.679688 90.757812 C 185.5 95.710938 187.339844 104.230469 184.878906 111.507812 L 166.59375 143.886719 Z M 151.070312 138.703125 "/>
<path style=" stroke:none;fill-rule:nonzero;fill:rgb(56.078431%,80.392157%,77.647059%);fill-opacity:1;" d="M 138.535156 93.898438 L 137.675781 88.117188 C 137.578125 87.460938 137.902344 86.828125 138.398438 86.703125 L 142.78125 85.570312 C 143.269531 85.457031 143.757812 85.867188 143.855469 86.523438 L 144.710938 92.304688 C 144.808594 92.960938 144.484375 93.589844 143.992188 93.71875 L 139.605469 94.851562 C 139.546875 94.867188 139.488281 94.875 139.429688 94.875 C 139 94.875 138.621094 94.472656 138.535156 93.898438 Z M 142.238281 88.167969 L 139.644531 88.835938 L 140.152344 92.253906 L 142.742188 91.585938 Z M 142.238281 88.167969 "/>
<path style=" stroke:none;fill-rule:nonzero;fill:rgb(56.078431%,80.392157%,77.647059%);fill-opacity:1;" d="M 121.28125 98.5625 L 120.03125 92.980469 C 119.960938 92.65625 119.992188 92.308594 120.128906 92.015625 C 120.261719 91.726562 120.480469 91.523438 120.734375 91.457031 L 125.117188 90.324219 C 125.582031 90.21875 126.035156 90.566406 126.167969 91.167969 L 127.417969 96.753906 C 127.492188 97.078125 127.457031 97.425781 127.324219 97.71875 C 127.191406 98.007812 126.96875 98.210938 126.71875 98.277344 L 122.332031 99.410156 C 122.273438 99.425781 122.214844 99.429688 122.15625 99.429688 C 121.757812 99.429688 121.398438 99.085938 121.28125 98.5625 Z M 124.652344 92.902344 L 122.070312 93.570312 L 122.796875 96.828125 L 125.382812 96.164062 Z M 124.652344 92.902344 "/>
<path style=" stroke:none;fill-rule:nonzero;fill:rgb(13.72549%,13.72549%,25.490196%);fill-opacity:1;" d="M 133.6875 133.835938 L 127.5 108.867188 C 127.382812 108.402344 127.421875 107.894531 127.609375 107.46875 C 127.800781 107.042969 128.113281 106.746094 128.476562 106.644531 L 140.917969 103.304688 C 141.558594 103.136719 142.210938 103.628906 142.417969 104.457031 L 148.539062 129.144531 C 148.960938 130.847656 148.8125 132.71875 148.128906 134.269531 C 147.441406 135.820312 146.285156 136.914062 144.953125 137.273438 L 139.925781 138.621094 C 139.5625 138.71875 139.199219 138.765625 138.839844 138.765625 C 136.539062 138.765625 134.429688 136.824219 133.6875 133.835938 Z M 130.4375 109.636719 L 136.171875 132.765625 C 136.617188 134.558594 138.011719 135.601562 139.402344 135.246094 L 139.40625 135.242188 L 144.433594 133.894531 C 145.042969 133.730469 145.554688 133.246094 145.867188 132.535156 C 146.183594 131.820312 146.25 130.996094 146.054688 130.210938 L 140.296875 106.984375 Z M 130.4375 109.636719 "/>
<path style=" stroke:none;fill-rule:nonzero;fill:rgb(75.686275%,34.901961%,32.941176%);fill-opacity:1;" d="M 165.644531 108.78125 C 166.09375 108.78125 166.53125 108.472656 166.773438 107.921875 C 167.738281 105.742188 172.378906 103.414062 174.664062 104.433594 C 175.347656 104.746094 176.089844 104.261719 176.324219 103.363281 C 176.558594 102.460938 176.191406 101.484375 175.511719 101.175781 C 172.226562 99.683594 166.167969 102.457031 164.519531 106.191406 C 164.152344 107.011719 164.367188 108.066406 164.988281 108.546875 C 165.195312 108.703125 165.421875 108.78125 165.644531 108.78125 Z M 165.644531 108.78125 "/>
<path style=" stroke:none;fill-rule:nonzero;fill:rgb(75.686275%,34.901961%,32.941176%);fill-opacity:1;" d="M 165.1875 107.867188 C 165.851562 107.867188 166.417969 107.207031 166.484375 106.320312 C 166.773438 102.597656 167.734375 97.875 170.679688 96.53125 C 171.359375 96.222656 171.722656 95.238281 171.484375 94.34375 C 171.25 93.445312 170.503906 92.964844 169.824219 93.277344 C 166.464844 94.8125 164.410156 99.199219 163.886719 105.96875 C 163.8125 106.914062 164.335938 107.761719 165.050781 107.859375 C 165.097656 107.863281 165.144531 107.867188 165.1875 107.867188 Z M 165.1875 107.867188 "/>
<path style=" stroke:none;fill-rule:nonzero;fill:rgb(98.823529%,64.705882%,32.156863%);fill-opacity:1;" d="M 131.917969 147.875 C 144.066406 150.597656 144.539062 138.523438 141.140625 136.058594 C 140.117188 135.316406 139.203125 135.09375 138.566406 135.429688 C 137.980469 135.738281 137.726562 136.46875 137.625 136.878906 C 137.363281 137.972656 136.476562 138.574219 135.644531 138.226562 C 135.296875 138.078125 135.011719 137.785156 134.820312 137.414062 C 134.558594 136.902344 134.472656 136.246094 134.625 135.613281 C 135.078125 133.730469 136.089844 132.257812 137.394531 131.570312 C 138.476562 131 140.265625 130.683594 142.65625 132.417969 C 146.878906 135.476562 147.875 145.0625 141.96875 150.628906 C 137.664062 152.550781 134.449219 151.230469 131.917969 147.875 Z M 131.917969 147.875 "/>
<path style=" stroke:none;fill-rule:nonzero;fill:rgb(99.215686%,77.254902%,42.352941%);fill-opacity:1;" d="M 135.511719 129.597656 C 135.25 129.085938 135.164062 128.429688 135.316406 127.796875 C 135.769531 125.914062 136.78125 124.441406 138.085938 123.753906 C 139.167969 123.183594 140.957031 122.871094 143.347656 124.601562 C 145.773438 126.359375 147.132812 130.269531 146.734375 134.335938 C 146.621094 135.476562 145.832031 136.277344 144.96875 136.128906 C 144.105469 135.980469 143.496094 134.9375 143.609375 133.800781 C 143.839844 131.453125 143.109375 129.171875 141.832031 128.246094 C 140.808594 127.503906 139.890625 127.28125 139.253906 127.617188 C 138.667969 127.925781 138.414062 128.65625 138.316406 129.0625 C 138.050781 130.15625 137.167969 130.761719 136.335938 130.410156 C 135.984375 130.261719 135.703125 129.96875 135.511719 129.597656 Z M 135.511719 129.597656 "/>
<path style=" stroke:none;fill-rule:nonzero;fill:rgb(99.215686%,77.254902%,42.352941%);fill-opacity:1;" d="M 135.050781 140.003906 C 134.402344 138.734375 134.242188 137.1875 134.625 135.613281 C 134.886719 134.523438 135.773438 133.917969 136.601562 134.269531 C 137.433594 134.617188 137.890625 135.785156 137.625 136.878906 C 137.503906 137.378906 137.597656 137.625 137.785156 137.863281 C 138.355469 138.589844 139.816406 138.96875 141.179688 138.316406 C 142.167969 137.839844 143.398438 136.683594 143.628906 133.871094 C 143.722656 132.730469 144.5 131.90625 145.363281 132.027344 C 146.230469 132.152344 146.855469 133.175781 146.761719 134.316406 C 146.449219 138.117188 144.808594 141 142.253906 142.222656 C 139.871094 143.363281 137.136719 142.804688 135.605469 140.863281 C 135.390625 140.59375 135.207031 140.304688 135.050781 140.003906 Z M 135.050781 140.003906 "/>
<path style=" stroke:none;fill-rule:nonzero;fill:rgb(75.686275%,34.901961%,32.941176%);fill-opacity:1;" d="M 125.847656 160.25 L 165.734375 160.25 L 163.554688 148.761719 C 162.851562 145.03125 160.308594 142.417969 157.394531 142.417969 L 152.210938 142.417969 L 142.898438 147.976562 C 138.722656 150.472656 133.855469 149.863281 130.109375 146.378906 L 130.078125 146.351562 C 128.300781 144.695312 125.847656 146.375 125.847656 149.242188 Z M 125.847656 160.25 "/>
<path style=" stroke:none;fill-rule:nonzero;fill:rgb(97.254902%,95.686275%,87.058824%);fill-opacity:1;" d="M 155.691406 153.867188 L 160.527344 153.078125 C 165.28125 152.304688 169.007812 147.320312 169.53125 141.035156 C 169.855469 137.113281 167.535156 133.6875 164.542969 133.671875 L 157.0625 133.632812 C 152.742188 133.609375 149.253906 138.582031 149.835938 144.234375 C 150.269531 148.460938 152.082031 151.765625 155.691406 153.867188 Z M 155.691406 153.867188 "/>
<path style=" stroke:none;fill-rule:nonzero;fill:rgb(100%,43.137255%,27.843137%);fill-opacity:1;" d="M 237.792969 179.53125 L 237.792969 318.816406 L 224.457031 318.816406 L 224.457031 179.53125 Z M 237.792969 179.53125 "/>
<path style=" stroke:none;fill-rule:nonzero;fill:rgb(98.823529%,64.705882%,32.156863%);fill-opacity:1;" d="M 237.792969 214.066406 L 237.792969 301.554688 L 231.597656 301.554688 L 231.597656 214.066406 Z M 237.792969 214.066406 "/>
<path style=" stroke:none;fill-rule:nonzero;fill:rgb(98.823529%,64.705882%,32.156863%);fill-opacity:1;" d="M 58.800781 179.53125 L 58.800781 318.816406 L 45.46875 318.816406 L 45.46875 179.53125 Z M 58.800781 179.53125 "/>
<path style=" stroke:none;fill-rule:nonzero;fill:rgb(100%,43.137255%,27.843137%);fill-opacity:1;" d="M 58.800781 196.878906 L 45.46875 196.878906 L 45.46875 185.269531 L 58.800781 185.269531 Z M 58.800781 196.878906 "/>
<path style=" stroke:none;fill-rule:nonzero;fill:rgb(98.823529%,64.705882%,32.156863%);fill-opacity:1;" d="M 270.703125 265.203125 L 52.136719 265.203125 L 52.136719 249.175781 L 270.703125 249.175781 Z M 270.703125 265.203125 "/>
<path style=" stroke:none;fill-rule:nonzero;fill:rgb(98.823529%,64.705882%,32.156863%);fill-opacity:1;" d="M 103.785156 179.53125 L 103.785156 318.816406 L 90.453125 318.816406 L 90.453125 179.53125 Z M 103.785156 179.53125 "/>
<path style=" stroke:none;fill-rule:nonzero;fill:rgb(99.215686%,77.254902%,42.352941%);fill-opacity:1;" d="M 103.785156 179.53125 L 103.785156 300.710938 L 97.59375 300.710938 L 97.59375 179.53125 Z M 103.785156 179.53125 "/>
<path style=" stroke:none;fill-rule:nonzero;fill:rgb(100%,43.137255%,27.843137%);fill-opacity:1;" d="M 103.785156 196.878906 L 90.453125 196.878906 L 90.453125 185.269531 L 103.785156 185.269531 Z M 103.785156 196.878906 "/>
<path style=" stroke:none;fill-rule:nonzero;fill:rgb(99.215686%,77.254902%,42.352941%);fill-opacity:1;" d="M 120.164062 318.820312 L 120.164062 305.539062 C 120.164062 305.359375 120.054688 305.21875 119.921875 305.21875 L 97.796875 305.21875 L 97.796875 318.820312 Z M 120.164062 318.820312 "/>
<path style=" stroke:none;fill-rule:nonzero;fill:rgb(98.823529%,64.705882%,32.156863%);fill-opacity:1;" d="M 111.316406 318.820312 L 111.316406 305.539062 C 111.316406 305.359375 111.207031 305.21875 111.074219 305.21875 L 31.796875 305.21875 C 31.660156 305.21875 31.550781 305.359375 31.550781 305.539062 L 31.550781 318.820312 Z M 111.316406 318.820312 "/>
<path style=" stroke:none;fill-rule:nonzero;fill:rgb(98.823529%,64.705882%,32.156863%);fill-opacity:1;" d="M 277.367188 185.273438 L 277.367188 318.816406 L 264.035156 318.816406 L 264.035156 185.273438 Z M 277.367188 185.273438 "/>
<path style=" stroke:none;fill-rule:nonzero;fill:rgb(99.215686%,77.254902%,42.352941%);fill-opacity:1;" d="M 277.367188 185.269531 L 277.367188 301.554688 L 271.175781 301.554688 L 271.175781 185.269531 Z M 277.367188 185.269531 "/>
<path style=" stroke:none;fill-rule:nonzero;fill:rgb(100%,43.137255%,27.843137%);fill-opacity:1;" d="M 277.367188 205.148438 L 264.035156 205.148438 L 264.035156 185.273438 L 277.367188 185.273438 Z M 277.367188 205.148438 "/>
<path style=" stroke:none;fill-rule:nonzero;fill:rgb(99.215686%,77.254902%,42.352941%);fill-opacity:1;" d="M 291.042969 318.820312 L 291.042969 305.539062 C 291.042969 305.359375 290.933594 305.21875 290.796875 305.21875 L 268.671875 305.21875 L 268.671875 318.820312 Z M 291.042969 318.820312 "/>
<path style=" stroke:none;fill-rule:nonzero;fill:rgb(98.823529%,64.705882%,32.156863%);fill-opacity:1;" d="M 282.195312 318.820312 L 282.195312 305.539062 C 282.195312 305.359375 282.085938 305.21875 281.949219 305.21875 L 213.492188 305.21875 C 213.355469 305.21875 213.246094 305.359375 213.246094 305.539062 L 213.246094 318.820312 Z M 282.195312 318.820312 "/>
<path style=" stroke:none;fill-rule:nonzero;fill:rgb(98.823529%,64.705882%,32.156863%);fill-opacity:1;" d="M 243.378906 169.1875 L 36.789062 169.1875 L 36.789062 160.253906 L 243.378906 160.253906 Z M 243.378906 169.1875 "/>
<path style=" stroke:none;fill-rule:nonzero;fill:rgb(99.215686%,77.254902%,42.352941%);fill-opacity:1;" d="M 248.390625 169.1875 L 47.511719 169.1875 L 47.511719 160.253906 L 248.390625 160.253906 Z M 248.390625 169.1875 "/>
<path style=" stroke:none;fill-rule:nonzero;fill:rgb(98.823529%,64.705882%,32.156863%);fill-opacity:1;" d="M 23.542969 189.671875 L 226.582031 189.671875 L 226.582031 169.183594 L 23.542969 169.183594 C 23.484375 169.183594 23.4375 169.246094 23.4375 169.320312 L 23.4375 189.535156 C 23.4375 189.609375 23.484375 189.671875 23.542969 189.671875 Z M 23.542969 189.671875 "/>
<path style=" stroke:none;fill-rule:nonzero;fill:rgb(100%,85.098039%,62.745098%);fill-opacity:1;" d="M 83.660156 189.671875 L 298.246094 189.671875 L 298.246094 169.320312 C 298.246094 169.246094 298.199219 169.183594 298.144531 169.183594 L 83.660156 169.183594 C 83.597656 169.183594 83.546875 169.253906 83.546875 169.335938 L 83.546875 189.519531 C 83.546875 189.601562 83.597656 189.671875 83.660156 189.671875 Z M 83.660156 189.671875 "/>
<path style=" stroke:none;fill-rule:nonzero;fill:rgb(100%,85.098039%,62.745098%);fill-opacity:1;" d="M 243.378906 199.054688 L 298.144531 199.054688 C 298.199219 199.054688 298.246094 198.992188 298.246094 198.917969 L 298.246094 169.320312 C 298.246094 169.246094 298.199219 169.183594 298.144531 169.183594 L 243.378906 169.183594 Z M 243.378906 199.054688 "/>
<path style=" stroke:none;fill-rule:nonzero;fill:rgb(99.215686%,77.254902%,42.352941%);fill-opacity:1;" d="M 35.667969 153.867188 C 36.738281 153.867188 37.609375 155.015625 37.609375 156.429688 L 37.609375 169.183594 L 33.722656 169.183594 L 33.722656 156.429688 C 33.722656 155.015625 34.59375 153.867188 35.667969 153.867188 Z M 35.667969 153.867188 "/>
<path style=" stroke:none;fill-rule:nonzero;fill:rgb(98.823529%,64.705882%,32.156863%);fill-opacity:1;" d="M 243.378906 199.054688 L 233.609375 199.054688 C 233.535156 199.054688 233.476562 198.976562 233.476562 198.882812 L 233.476562 169.1875 L 243.378906 169.1875 Z M 243.378906 199.054688 "/>
<path style=" stroke:none;fill-rule:nonzero;fill:rgb(99.215686%,77.254902%,42.352941%);fill-opacity:1;" d="M 298.246094 193.914062 L 243.378906 193.914062 L 243.378906 199.054688 L 298.113281 199.054688 C 298.1875 199.054688 298.246094 198.976562 298.246094 198.878906 Z M 298.246094 193.914062 "/>
<path style=" stroke:none;fill-rule:nonzero;fill:rgb(100%,43.137255%,27.843137%);fill-opacity:1;" d="M 54.679688 189.671875 L 50.792969 189.671875 L 50.792969 169.390625 L 54.679688 169.390625 Z M 54.679688 189.671875 "/>
<path style=" stroke:none;fill-rule:nonzero;fill:rgb(98.823529%,64.705882%,32.156863%);fill-opacity:1;" d="M 136.480469 189.671875 L 132.589844 189.671875 L 132.589844 169.390625 L 136.480469 169.390625 Z M 136.480469 189.671875 "/>
<path style=" stroke:none;fill-rule:nonzero;fill:rgb(13.72549%,13.72549%,25.490196%);fill-opacity:1;" d="M 255.042969 199.054688 L 286.582031 199.054688 L 286.582031 178.003906 C 286.582031 177.917969 286.53125 177.847656 286.464844 177.847656 L 255.160156 177.847656 C 255.09375 177.847656 255.042969 177.917969 255.042969 178.003906 Z M 255.042969 199.054688 "/>
<path style=" stroke:none;fill-rule:nonzero;fill:rgb(13.72549%,13.72549%,25.490196%);fill-opacity:1;" d="M 65.1875 179.425781 C 65.1875 183.367188 66.738281 186.558594 68.648438 186.558594 C 70.554688 186.558594 72.105469 183.367188 72.105469 179.425781 C 72.105469 175.488281 70.558594 172.296875 68.648438 172.296875 C 66.734375 172.296875 65.1875 175.488281 65.1875 179.425781 Z M 65.1875 179.425781 "/>
<path style=" stroke:none;fill-rule:nonzero;fill:rgb(23.921569%,54.117647%,63.529412%);fill-opacity:1;" d="M 59.125 231 C 59.023438 231 58.921875 230.996094 58.820312 230.976562 C 57.5625 230.757812 56.675781 229.234375 56.839844 227.574219 L 63.570312 160.097656 C 63.742188 158.4375 64.878906 157.265625 66.152344 157.488281 C 67.410156 157.707031 68.296875 159.230469 68.132812 160.890625 L 61.402344 228.367188 C 61.246094 229.890625 60.261719 231 59.125 231 Z M 59.125 231 "/>
<path style=" stroke:none;fill-rule:nonzero;fill:rgb(56.078431%,80.392157%,77.647059%);fill-opacity:1;" d="M 65.859375 165.550781 C 65.691406 165.550781 65.519531 165.535156 65.347656 165.503906 C 63.25 165.136719 61.777344 162.597656 62.054688 159.828125 L 62.230469 158.078125 C 62.511719 155.308594 64.484375 153.386719 66.535156 153.734375 C 68.632812 154.101562 70.105469 156.644531 69.828125 159.410156 L 69.652344 161.160156 C 69.394531 163.703125 67.75 165.550781 65.859375 165.550781 Z M 65.859375 165.550781 "/>
<path style=" stroke:none;fill-rule:nonzero;fill:rgb(56.078431%,80.392157%,77.647059%);fill-opacity:1;" d="M 58.941406 234.890625 C 58.773438 234.890625 58.605469 234.875 58.4375 234.84375 C 56.339844 234.480469 54.859375 231.941406 55.136719 229.175781 L 55.320312 227.3125 C 55.59375 224.542969 57.519531 222.617188 59.617188 222.957031 C 61.71875 223.320312 63.195312 225.855469 62.921875 228.625 L 62.734375 230.488281 C 62.484375 233.035156 60.835938 234.890625 58.941406 234.890625 Z M 58.941406 234.890625 "/>
<path style=" stroke:none;fill-rule:nonzero;fill:rgb(56.078431%,80.392157%,77.647059%);fill-opacity:1;" d="M 67.285156 175.195312 C 65.472656 172.804688 62.53125 172.804688 60.714844 175.195312 C 58.902344 177.589844 58.902344 181.46875 60.714844 183.863281 C 62.53125 186.253906 65.472656 186.253906 67.285156 183.863281 C 69.101562 181.46875 69.101562 177.589844 67.285156 175.195312 Z M 67.285156 175.195312 "/>
<path style=" stroke:none;fill-rule:nonzero;fill:rgb(46.27451%,71.372549%,80%);fill-opacity:1;" d="M 286.589844 79.929688 L 267.769531 79.929688 L 267.769531 56.453125 L 270.472656 56.453125 L 270.472656 76.363281 L 286.589844 76.363281 Z M 286.589844 79.929688 "/>
<path style=" stroke:none;fill-rule:nonzero;fill:rgb(75.686275%,34.901961%,32.941176%);fill-opacity:1;" d="M 281.6875 93.882812 L 257.867188 93.882812 C 257.492188 93.882812 257.1875 93.484375 257.1875 92.992188 L 257.1875 61.570312 L 281.6875 61.570312 Z M 281.6875 93.882812 "/>
<path style=" stroke:none;fill-rule:nonzero;fill:rgb(46.27451%,71.372549%,80%);fill-opacity:1;" d="M 271.675781 58.238281 L 266.566406 58.238281 C 265.820312 58.238281 265.214844 57.4375 265.214844 56.453125 C 265.214844 55.464844 265.820312 54.667969 266.566406 54.667969 L 271.675781 54.667969 C 272.421875 54.667969 273.027344 55.464844 273.027344 56.453125 C 273.027344 57.4375 272.421875 58.238281 271.675781 58.238281 Z M 271.675781 58.238281 "/>
<path style=" stroke:none;fill-rule:nonzero;fill:rgb(46.27451%,71.372549%,80%);fill-opacity:1;" d="M 286.589844 90.367188 C 285.84375 90.367188 285.238281 89.570312 285.238281 88.582031 L 285.238281 74.847656 C 285.238281 73.859375 285.839844 73.0625 286.589844 73.0625 C 287.335938 73.0625 287.941406 73.859375 287.941406 74.847656 L 287.941406 88.582031 C 287.941406 89.566406 287.335938 90.367188 286.589844 90.367188 Z M 286.589844 90.367188 "/>
<path style=" stroke:none;fill-rule:nonzero;fill:rgb(13.72549%,13.72549%,25.490196%);fill-opacity:1;" d="M 218.128906 169.1875 L 223.347656 169.1875 L 225.128906 143.097656 L 218.050781 143.097656 Z M 218.128906 169.1875 "/>
<path style=" stroke:none;fill-rule:nonzero;fill:rgb(99.215686%,77.254902%,42.352941%);fill-opacity:1;" d="M 277.699219 143.097656 L 201.71875 143.097656 L 201.71875 66.421875 L 277.699219 66.421875 Z M 218.683594 136.476562 L 260.730469 136.476562 L 260.730469 73.042969 L 218.683594 73.042969 Z M 218.683594 136.476562 "/>
<path style=" stroke:none;fill-rule:nonzero;fill:rgb(100%,85.098039%,62.745098%);fill-opacity:1;" d="M 264.714844 143.097656 L 200.683594 143.097656 L 200.683594 66.421875 L 264.714844 66.421875 Z M 205.703125 136.476562 L 259.695312 136.476562 L 259.695312 73.042969 L 205.703125 73.042969 Z M 205.703125 136.476562 "/>
<path style=" stroke:none;fill-rule:nonzero;fill:rgb(75.686275%,34.901961%,32.941176%);fill-opacity:1;" d="M 259.917969 169.1875 L 254.695312 169.1875 L 252.917969 143.097656 L 259.992188 143.097656 Z M 259.917969 169.1875 "/>
<path style=" stroke:none;fill-rule:nonzero;fill:rgb(61.568627%,31.764706%,31.764706%);fill-opacity:1;" d="M 276 169.1875 L 270.777344 169.1875 L 266.488281 143.097656 L 273.566406 143.097656 Z M 276 169.1875 "/>
<path style=" stroke:none;fill-rule:nonzero;fill:rgb(75.686275%,34.901961%,32.941176%);fill-opacity:1;" d="M 202.929688 169.1875 L 208.152344 169.1875 L 212.441406 143.097656 L 205.363281 143.097656 Z M 202.929688 169.1875 "/>
<path style=" stroke:none;fill-rule:nonzero;fill:rgb(100%,43.137255%,27.843137%);fill-opacity:1;" d="M 218.683594 94.835938 L 205.703125 78.519531 L 205.703125 73.042969 L 218.683594 73.042969 Z M 218.683594 94.835938 "/>
<path style=" stroke:none;fill-rule:nonzero;fill:rgb(46.27451%,71.372549%,80%);fill-opacity:1;" d="M 273.292969 79.929688 L 254.472656 79.929688 L 254.472656 56.453125 L 257.175781 56.453125 L 257.175781 76.363281 L 273.292969 76.363281 Z M 273.292969 79.929688 "/>
<path style=" stroke:none;fill-rule:nonzero;fill:rgb(100%,43.137255%,27.843137%);fill-opacity:1;" d="M 268.394531 93.882812 L 244.570312 93.882812 C 244.199219 93.882812 243.894531 93.484375 243.894531 92.992188 L 243.894531 61.570312 L 268.390625 61.570312 L 268.390625 93.882812 Z M 268.394531 93.882812 "/>
<path style=" stroke:none;fill-rule:nonzero;fill:rgb(75.686275%,34.901961%,32.941176%);fill-opacity:1;" d="M 244.421875 74.824219 L 258.378906 74.824219 L 258.378906 93.199219 C 259.261719 93.472656 260.160156 93.671875 261.082031 93.777344 L 261.082031 71.257812 L 243.976562 71.257812 C 244.058594 72.476562 244.214844 73.664062 244.421875 74.824219 Z M 244.421875 74.824219 "/>
<path style=" stroke:none;fill-rule:nonzero;fill:rgb(46.27451%,71.372549%,80%);fill-opacity:1;" d="M 261.082031 58.238281 L 250.566406 58.238281 C 249.820312 58.238281 249.214844 57.4375 249.214844 56.453125 C 249.214844 55.464844 249.820312 54.667969 250.566406 54.667969 L 261.082031 54.667969 C 261.832031 54.667969 262.4375 55.464844 262.4375 56.453125 C 262.4375 57.4375 261.832031 58.238281 261.082031 58.238281 Z M 261.082031 58.238281 "/>
<path style=" stroke:none;fill-rule:nonzero;fill:rgb(46.27451%,71.372549%,80%);fill-opacity:1;" d="M 273.292969 86.800781 C 272.546875 86.800781 271.941406 86 271.941406 85.015625 L 271.941406 71.277344 C 271.941406 70.292969 272.542969 69.492188 273.292969 69.492188 C 274.039062 69.492188 274.644531 70.292969 274.644531 71.277344 L 274.644531 85.015625 C 274.644531 86 274.039062 86.800781 273.292969 86.800781 Z M 273.292969 86.800781 "/>
<path style=" stroke:none;fill-rule:nonzero;fill:rgb(23.921569%,54.117647%,63.529412%);fill-opacity:1;" d="M 289.246094 228.847656 C 288.347656 228.847656 287.492188 228.152344 287.128906 226.992188 L 267.074219 164.285156 C 266.578125 162.742188 267.128906 160.964844 268.296875 160.3125 C 269.464844 159.65625 270.816406 160.382812 271.308594 161.929688 L 291.363281 224.636719 C 291.855469 226.179688 291.308594 227.957031 290.136719 228.609375 C 289.847656 228.769531 289.542969 228.847656 289.246094 228.847656 Z M 289.246094 228.847656 "/>
<path style=" stroke:none;fill-rule:nonzero;fill:rgb(56.078431%,80.392157%,77.647059%);fill-opacity:1;" d="M 269.195312 168.164062 C 267.699219 168.164062 266.277344 167.003906 265.660156 165.070312 L 265.144531 163.445312 C 264.320312 160.875 265.234375 157.910156 267.1875 156.824219 C 269.140625 155.738281 271.382812 156.949219 272.207031 159.519531 L 272.726562 161.144531 C 273.546875 163.714844 272.632812 166.679688 270.683594 167.765625 C 270.195312 168.035156 269.691406 168.164062 269.195312 168.164062 Z M 269.195312 168.164062 "/>
<path style=" stroke:none;fill-rule:nonzero;fill:rgb(56.078431%,80.392157%,77.647059%);fill-opacity:1;" d="M 289.800781 232.605469 C 288.304688 232.605469 286.878906 231.441406 286.265625 229.507812 L 285.710938 227.773438 C 284.890625 225.203125 285.808594 222.238281 287.761719 221.152344 C 289.699219 220.070312 291.957031 221.28125 292.777344 223.851562 L 293.332031 225.585938 C 294.148438 228.15625 293.234375 231.121094 291.285156 232.207031 C 290.800781 232.476562 290.296875 232.605469 289.800781 232.605469 Z M 289.800781 232.605469 "/>
<path style=" stroke:none;fill-rule:nonzero;fill:rgb(56.078431%,80.392157%,77.647059%);fill-opacity:1;" d="M 272.652344 188.453125 C 272.652344 185.066406 274.730469 182.324219 277.296875 182.324219 C 279.863281 182.324219 281.941406 185.066406 281.941406 188.453125 C 281.941406 191.835938 279.863281 194.578125 277.296875 194.578125 C 274.730469 194.578125 272.652344 191.835938 272.652344 188.453125 Z M 272.652344 188.453125 "/>
<path style=" stroke:none;fill-rule:nonzero;fill:rgb(13.72549%,13.72549%,25.490196%);fill-opacity:1;" d="M 112.640625 40.328125 C 112.640625 41.148438 112.136719 41.8125 111.515625 41.8125 C 110.894531 41.8125 110.390625 41.148438 110.390625 40.328125 C 110.390625 39.507812 110.894531 38.84375 111.515625 38.84375 C 112.136719 38.84375 112.640625 39.507812 112.640625 40.328125 Z M 112.640625 40.328125 "/>
<path style=" stroke:none;fill-rule:nonzero;fill:rgb(13.72549%,13.72549%,25.490196%);fill-opacity:1;" d="M 120.941406 37.359375 C 120.941406 38.179688 120.441406 38.84375 119.816406 38.84375 C 119.195312 38.84375 118.691406 38.179688 118.691406 37.359375 C 118.691406 36.539062 119.195312 35.875 119.816406 35.875 C 120.441406 35.875 120.941406 36.539062 120.941406 37.359375 Z M 120.941406 37.359375 "/>
<path style=" stroke:none;fill-rule:nonzero;fill:rgb(13.72549%,13.72549%,25.490196%);fill-opacity:1;" d="M 113.296875 39.671875 C 113.308594 39.769531 113.320312 39.863281 113.324219 39.957031 C 113.046875 38.824219 112.164062 38.117188 111.257812 38.351562 C 110.347656 38.582031 109.730469 39.675781 109.796875 40.863281 C 109.777344 40.773438 109.757812 40.679688 109.742188 40.585938 C 109.550781 39.292969 110.191406 38.039062 111.171875 37.785156 C 112.15625 37.535156 113.105469 38.378906 113.296875 39.671875 Z M 113.296875 39.671875 "/>
<path style=" stroke:none;fill-rule:nonzero;fill:rgb(13.72549%,13.72549%,25.490196%);fill-opacity:1;" d="M 121.617188 36.710938 C 121.636719 36.804688 121.652344 36.902344 121.660156 36.996094 C 121.335938 35.886719 120.421875 35.246094 119.527344 35.546875 C 118.628906 35.847656 118.0625 36.984375 118.179688 38.167969 C 118.152344 38.078125 118.128906 37.988281 118.109375 37.890625 C 117.863281 36.613281 118.449219 35.3125 119.417969 34.988281 C 120.386719 34.664062 121.371094 35.433594 121.617188 36.710938 Z M 121.617188 36.710938 "/>
<path style=" stroke:none;fill-rule:nonzero;fill:rgb(13.72549%,13.72549%,25.490196%);fill-opacity:1;" d="M 116.203125 40.863281 L 116.425781 42.855469 L 116.863281 44.980469 L 115.859375 46.886719 "/>
</g>
</svg>
